<svg width="230" height="16" viewBox="0 0 230 16" fill="none" xmlns="http://www.w3.org/2000/svg">
<path d="M20.9377 0.432662H20.8819C20.6586 0.488459 19.4178 0.488459 18.2142 0.488459H14.4422C13.673 0.507058 12.9967 0.488459 12.0785 0.445061H12.0041C11.9449 0.490305 11.8968 0.54844 11.8635 0.615047C11.8302 0.681654 11.8125 0.754978 11.8118 0.829444C11.8023 0.897877 11.8098 0.967592 11.8336 1.03246C11.8574 1.09732 11.8968 1.15535 11.9483 1.20143H11.9793L12.3143 1.24483C13.3503 1.36882 13.4124 1.49901 13.4124 3.62552V10.873C13.4124 13.0119 13.2883 13.1483 12.3019 13.2351L11.5884 13.3033L11.5512 13.3405C11.5031 13.3997 11.4682 13.4685 11.4489 13.5423C11.4297 13.6161 11.4265 13.6931 11.4395 13.7683C11.4442 13.83 11.4636 13.8898 11.4959 13.9426C11.5283 13.9954 11.5728 14.0398 11.6257 14.0721H11.6629L14.405 14.0101H16.2104C17.9847 14.0101 19.7962 14.0101 21.5829 14.0721H21.676L21.7194 13.9853C22.1151 13.0756 22.4326 12.134 22.6686 11.1706V11.1024C22.6397 11.0381 22.596 10.9815 22.541 10.9373C22.486 10.8931 22.4213 10.8626 22.3522 10.8482C22.2851 10.8268 22.214 10.8207 22.1443 10.8304C22.0745 10.84 22.0077 10.8652 21.949 10.904C21.6434 11.6207 21.1763 12.2572 20.5841 12.7639C20.156 12.9809 19.5481 13.0491 18.1025 13.0491C16.3468 13.0491 15.9808 12.8321 15.7823 12.6275C15.4969 12.3299 15.4411 11.6728 15.4411 10.6498V7.89093C15.4411 7.49414 15.4411 7.49414 15.956 7.49414H17.1223C17.6267 7.46847 18.1324 7.49967 18.6299 7.58714C18.9587 7.66774 19.0704 7.90953 19.1448 8.20711L19.3371 9.02548V9.05647C19.3935 9.11006 19.4613 9.15017 19.5355 9.17379C19.6096 9.19741 19.6882 9.20394 19.7652 9.19287C19.8311 9.19072 19.8957 9.17338 19.9538 9.14219C20.0119 9.111 20.062 9.06681 20.1002 9.01308V8.97588V8.21951L20.0506 7.03537L20.1002 5.79542V4.96466C20.0639 4.90907 20.0142 4.86349 19.9556 4.83208C19.8971 4.80067 19.8316 4.78443 19.7652 4.78487C19.6881 4.77235 19.6092 4.77818 19.5348 4.80188C19.4604 4.82558 19.3927 4.86648 19.3371 4.92126V4.95846L19.1696 5.79542C19.0704 6.2914 18.9401 6.3348 18.785 6.38439C18.2389 6.48446 17.6831 6.5219 17.1285 6.49599H15.8815C15.3666 6.49599 15.3666 6.49599 15.3666 6.08061V2.07559C15.3666 1.41842 15.3666 1.41842 15.8257 1.41842H17.2712C17.9167 1.39064 18.5633 1.43012 19.2006 1.53621C20.1188 1.7656 20.3049 2.34218 20.5779 3.22254L20.6213 3.35273C20.6636 3.40779 20.7198 3.45061 20.7841 3.47676C20.8485 3.50291 20.9186 3.51146 20.9874 3.50152C21.0602 3.50178 21.1322 3.48642 21.1985 3.45647C21.2649 3.42652 21.3241 3.38269 21.372 3.32793V3.27833V2.99315C21.3249 2.17071 21.2212 1.35249 21.0618 0.544257L21.0122 0.414062L20.9377 0.432662Z" fill="white"/>
<path d="M31.026 0.185055H30.9888L30.9454 0.234653C30.6989 0.56263 30.3628 0.812385 29.9776 0.953821L29.8473 0.991019V1.12121C29.8579 1.59716 29.7491 2.06819 29.5309 2.49135L27.4836 7.90991L26.1125 11.4004L25.7217 12.3799C25.6581 12.6225 25.5195 12.8388 25.3257 12.998C25.1318 13.1572 24.8926 13.2511 24.6422 13.2665L23.9598 13.3285H23.9288C23.8813 13.3745 23.8454 13.431 23.8238 13.4935C23.8023 13.5559 23.7957 13.6226 23.8047 13.688C23.8045 13.7599 23.8199 13.8309 23.8499 13.8962C23.8799 13.9615 23.9237 14.0195 23.9784 14.0662H24.0218H24.4747L25.9636 14.0228H26.6275L28.073 14.0724H28.1102C28.1744 14.0406 28.2289 13.9922 28.2682 13.9322C28.3074 13.8723 28.33 13.803 28.3335 13.7314C28.3461 13.6541 28.3377 13.5749 28.3094 13.5019C28.281 13.4288 28.2337 13.3647 28.1722 13.3161H28.1412L27.4588 13.2541C27.0121 13.2169 27.0121 13.1239 27.0121 12.9999C27.0932 12.4454 27.2389 11.9023 27.4464 11.3818L28.1474 9.27385C28.2591 8.93906 28.3025 8.89566 28.7678 8.89566H31.8015C32.3537 8.89566 32.3661 8.93286 32.4839 9.29245L33.3649 12.0203C33.4804 12.3471 33.5575 12.6863 33.5944 13.0309C33.5944 13.0991 33.4456 13.2107 33.0237 13.2479L32.4033 13.3099H32.3723C32.3163 13.3572 32.2729 13.4177 32.2459 13.4858C32.2188 13.5539 32.209 13.6276 32.2172 13.7004C32.2175 13.7744 32.2378 13.8469 32.2761 13.9102C32.3143 13.9735 32.369 14.0253 32.4343 14.06H32.85L34.7546 14.0166C35.5983 14.0166 36.2994 14.0166 37.1741 14.0786H37.2051H37.2548C37.3053 14.0248 37.3445 13.9614 37.3701 13.8922C37.3956 13.823 37.4071 13.7494 37.4037 13.6756C37.4049 13.6117 37.3916 13.5484 37.3647 13.4904C37.3378 13.4324 37.2981 13.3813 37.2486 13.3409H37.2175L36.6592 13.2789C35.8527 13.1859 35.6293 12.9007 35.071 11.2516L32.2296 2.80134L31.4913 0.470243C31.4619 0.379336 31.4021 0.301337 31.3218 0.249389C31.2416 0.197441 31.1459 0.174721 31.0508 0.185055H31.026ZM30.3684 3.11132C30.4677 3.37791 30.5918 3.7313 30.7158 4.10328C31.1749 5.47342 31.8636 7.55652 31.8884 7.67432V7.70532C31.8884 7.76112 31.8884 7.77971 31.7829 7.78591C31.6774 7.79211 30.0892 7.78591 29.0284 7.78591C28.8609 7.78591 28.7616 7.78591 28.7306 7.71772C28.7225 7.6957 28.7225 7.67154 28.7306 7.64952C28.7253 7.60006 28.7253 7.55019 28.7306 7.50073L29.9714 4.01648C30.1699 3.6135 30.3002 3.29732 30.3684 3.11132Z" fill="white"/>
<path d="M37.9185 0.0730013H37.8875V0.153598C37.6991 1.15763 37.4358 2.14615 37.0996 3.11086V3.16666C37.137 3.23241 37.1878 3.28957 37.2487 3.33443C37.3096 3.37929 37.3793 3.41085 37.4532 3.42705C37.5194 3.44475 37.5887 3.44781 37.6562 3.43604C37.7237 3.42426 37.7878 3.39792 37.8441 3.35885C38.0273 2.85376 38.3245 2.39765 38.7126 2.02591C39.1531 1.61673 40.1581 1.56093 41.0825 1.56093H42.1868C42.6397 1.56093 42.6397 1.56093 42.6397 2.05691V10.8729C42.6397 13.0118 42.5156 13.1482 41.5292 13.235L40.7723 13.297C40.7111 13.3422 40.6629 13.4026 40.6324 13.4722C40.6019 13.5418 40.5903 13.6182 40.5986 13.6938C40.597 13.7645 40.6131 13.8345 40.6457 13.8974C40.6782 13.9602 40.726 14.0139 40.7847 14.0534H40.822L43.6261 13.9914L46.2814 14.0534H46.3124C46.3742 14.0121 46.4243 13.9556 46.458 13.8894C46.4916 13.8231 46.5078 13.7494 46.5047 13.6752C46.5161 13.6072 46.5101 13.5375 46.4874 13.4725C46.4646 13.4075 46.4258 13.3492 46.3745 13.3032H46.3372L45.6796 13.2412C44.687 13.1296 44.6374 13.0304 44.6374 10.8729V2.05691C44.6083 1.91371 44.6083 1.76613 44.6374 1.62293C44.7683 1.58566 44.9051 1.57304 45.0406 1.58573H46.4985C47.578 1.58573 47.6401 1.74073 48.0743 2.05691C48.3586 2.45518 48.5125 2.93165 48.5148 3.42085V3.45805C48.5722 3.51214 48.641 3.55251 48.7163 3.57614C48.7915 3.59976 48.8711 3.60602 48.9491 3.59444C49.0175 3.59057 49.0838 3.56986 49.1423 3.53417C49.2007 3.49847 49.2494 3.4489 49.2841 3.38985V3.35265C49.2613 2.34305 49.3676 1.33467 49.6005 0.351989V0.271392C49.5136 0.0916005 49.191 0.0854007 49.0546 0.141198L48.9801 0.165997C48.7319 0.599978 48.6389 0.649575 47.547 0.649575H40.003C39.0725 0.649575 38.6196 0.649575 38.5265 0.147398V0.1102C38.4369 0.0522738 38.3339 0.0184172 38.2274 0.011901C38.1209 0.00538485 38.0145 0.0264294 37.9185 0.0730013Z" fill="white"/>
<path d="M51.7779 0.0736905L51.7407 0.154287C51.5543 1.15815 51.293 2.14667 50.959 3.11155V3.16735C50.9964 3.2331 51.0472 3.29026 51.1081 3.33512C51.169 3.37998 51.2387 3.41154 51.3126 3.42774C51.3788 3.44544 51.4481 3.4485 51.5156 3.43672C51.5831 3.42495 51.6472 3.39861 51.7035 3.35954C51.8867 2.85445 52.1839 2.39834 52.572 2.0266C53.0187 1.61742 53.3475 1.56162 54.2719 1.56162H55.2087C55.6616 1.56162 55.6615 1.56162 55.6615 2.0576V10.8736C55.6615 13.0125 55.5375 13.1489 54.5511 13.2357L53.8004 13.2977C53.7382 13.3419 53.6892 13.4022 53.6586 13.4721C53.628 13.542 53.617 13.6188 53.6267 13.6945C53.6232 13.7655 53.6386 13.8362 53.6713 13.8993C53.7039 13.9625 53.7528 14.0159 53.8128 14.0541H53.8438L56.648 13.9921L59.3032 14.0541H59.3405C59.4002 14.0108 59.4489 13.9539 59.4823 13.8882C59.5157 13.8224 59.5331 13.7496 59.5328 13.6759C59.5428 13.6074 59.5356 13.5375 59.5118 13.4726C59.488 13.4076 59.4483 13.3496 59.3963 13.3039L58.7387 13.2419C57.715 13.1303 57.6654 13.0311 57.6654 10.8736V2.0576C57.641 1.91397 57.641 1.76725 57.6654 1.62362C57.7964 1.58634 57.9331 1.57373 58.0687 1.58642H59.5266C60.3034 1.51702 61.0833 1.6811 61.7662 2.0576C62.0505 2.45587 62.2043 2.93234 62.2067 3.42154V3.45874C62.2625 3.51311 62.3303 3.55373 62.4046 3.57741C62.4789 3.60108 62.5577 3.60715 62.6348 3.59513C62.7031 3.59125 62.7695 3.57055 62.828 3.53486C62.8864 3.49916 62.9351 3.44959 62.9698 3.39054V3.35334C62.944 2.34465 63.044 1.33666 63.2675 0.352678V0.272082C63.1807 0.0922897 62.8581 0.08609 62.7216 0.141887L62.6844 0.179086C62.43 0.613066 62.337 0.662664 61.2451 0.662664H53.8686C52.9318 0.662664 52.4789 0.662664 52.3859 0.160487V0.123288C52.2974 0.0633883 52.1949 0.0273468 52.0884 0.0186572C51.9819 0.00996756 51.8749 0.0289245 51.7779 0.0736905Z" fill="white"/>
<path d="M65.8057 0.457712C65.7465 0.502956 65.6984 0.561091 65.6651 0.627698C65.6318 0.694305 65.6141 0.767629 65.6134 0.842095C65.6039 0.910528 65.6114 0.980243 65.6352 1.04511C65.659 1.10997 65.6983 1.168 65.7499 1.21408H65.7871L66.3516 1.25128C67.4435 1.33807 67.5242 1.49307 67.5242 3.63197V10.8732C67.5242 12.9997 67.4621 13.1299 66.4509 13.2353L65.8305 13.3035L65.7933 13.3407C65.7451 13.3999 65.7103 13.4687 65.691 13.5425C65.6717 13.6163 65.6685 13.6934 65.6816 13.7685C65.6863 13.8303 65.7056 13.89 65.738 13.9428C65.7704 13.9957 65.8148 14.04 65.8677 14.0723H65.905L68.5292 14.0103H70.3904C72.5866 14.0103 74.4043 14.0103 75.3535 14.0723H75.4466L75.49 13.9917C75.8675 13.0626 76.1542 12.0993 76.3461 11.115C76.3423 11.0602 76.3228 11.0076 76.2897 10.9636C76.2567 10.9196 76.2117 10.886 76.16 10.867C76.0753 10.8209 75.9804 10.7968 75.8839 10.7968C75.7875 10.7968 75.6926 10.8209 75.6079 10.867V10.898C75.3811 11.6397 74.9513 12.3032 74.3671 12.8138C74.0755 12.9811 73.6598 13.0555 71.9972 13.0555C70.5331 13.0555 70.136 12.851 69.9127 12.634C69.5901 12.293 69.5342 11.797 69.5342 10.5757V3.65677C69.5342 1.51786 69.6087 1.36287 70.6261 1.27608L71.1411 1.23268C71.1937 1.18723 71.2342 1.12949 71.2591 1.06459C71.284 0.999691 71.2925 0.929647 71.2837 0.860694C71.283 0.786228 71.2654 0.712904 71.232 0.646297C71.1987 0.57969 71.1506 0.521555 71.0914 0.476311H71.0356L68.554 0.538308L65.8429 0.445312L65.8057 0.457712Z" fill="white"/>
<path d="M87.5491 0.432662H87.4933C87.2699 0.488459 86.0229 0.488459 84.8194 0.488459H81.0474C80.2781 0.488459 79.6205 0.488459 78.6899 0.426462H78.6155C78.5552 0.470703 78.5063 0.528631 78.4729 0.595466C78.4395 0.662301 78.4224 0.736125 78.4231 0.810845C78.4137 0.879278 78.4211 0.948993 78.4449 1.01386C78.4687 1.07872 78.5081 1.13675 78.5596 1.18283H78.5907L78.9257 1.22623C79.9617 1.35022 80.0237 1.48041 80.0237 3.60692V10.873C80.0237 13.0119 79.8935 13.1483 78.9133 13.2351L78.1936 13.3033L78.1564 13.3405C78.1086 13.3998 78.0744 13.4688 78.0561 13.5427C78.0379 13.6166 78.0361 13.6936 78.0509 13.7683C78.0556 13.83 78.0749 13.8898 78.1073 13.9426C78.1397 13.9954 78.1841 14.0398 78.237 14.0721L80.9854 14.0101H82.7845C84.565 14.0101 86.3704 14.0101 88.1633 14.0721H88.2563L88.2936 13.9853C88.7132 13.0787 89.0516 12.1368 89.3048 11.1706V11.1272C89.2733 11.0647 89.2288 11.0097 89.1742 10.9658C89.1196 10.922 89.0563 10.8903 88.9884 10.873C88.9213 10.8516 88.8502 10.8455 88.7804 10.8552C88.7107 10.8648 88.6439 10.89 88.5851 10.9288C88.2804 11.646 87.8131 12.2826 87.2203 12.7887C86.7922 13.0057 86.1842 13.0739 84.7387 13.0739C82.983 13.0739 82.617 12.8569 82.4185 12.6523C82.1331 12.3547 82.0773 11.6976 82.0773 10.6746V7.89093C82.0773 7.49414 82.0772 7.49414 82.5922 7.49414H83.7585C84.2609 7.46841 84.7645 7.49961 85.2599 7.58714C85.5887 7.66774 85.7065 7.90953 85.781 8.20711L85.9671 9.02548V9.05647C86.0235 9.11006 86.0913 9.15017 86.1655 9.17379C86.2396 9.19741 86.3181 9.20394 86.3952 9.19287C86.4611 9.19072 86.5256 9.17338 86.5837 9.14219C86.6419 9.111 86.692 9.06681 86.7302 9.01308V8.97588L86.693 8.21951L86.6495 7.03537L86.693 5.79542L86.6743 4.97086C86.6376 4.91567 86.5878 4.87038 86.5294 4.83902C86.4709 4.80766 86.4057 4.79119 86.3393 4.79107C86.2623 4.77855 86.1833 4.78438 86.109 4.80808C86.0346 4.83178 85.9669 4.87268 85.9113 4.92746V4.96466L85.75 5.80162C85.6507 6.2976 85.5204 6.341 85.3653 6.39059C84.8192 6.49034 84.2635 6.52777 83.7089 6.50219H82.4805C81.9656 6.50219 81.9656 6.50219 81.9656 6.08681V2.07559C81.9656 1.41842 81.9656 1.41842 82.4185 1.41842H83.864C84.5033 1.39126 85.1437 1.43074 85.7748 1.53621C86.6992 1.7656 86.8791 2.34218 87.1582 3.22254L87.2017 3.35273C87.2454 3.40782 87.3027 3.45053 87.368 3.47663C87.4333 3.50273 87.5043 3.51131 87.5739 3.50152C87.6458 3.50171 87.7169 3.48628 87.7822 3.45631C87.8476 3.42633 87.9056 3.38253 87.9524 3.32793V3.26593V2.98075C87.9057 2.1627 87.8041 1.34871 87.6484 0.544257L87.6049 0.414062L87.5491 0.432662Z" fill="white"/>
<path d="M107.992 0.457461C107.944 0.493541 107.904 0.539114 107.874 0.591365C107.844 0.643616 107.825 0.701434 107.818 0.761247C107.808 0.830101 107.811 0.900473 107.83 0.967772C107.848 1.03507 107.88 1.09779 107.924 1.15183H107.98L108.538 1.25103C108.991 1.28822 109.32 1.41222 109.425 1.59821C109.655 2.00739 109.785 3.48913 109.785 5.67763V7.98392C109.785 10.346 109.115 13.1669 105.92 13.1669C103.24 13.1669 101.993 11.5116 101.993 7.95912V3.61932C101.993 1.48041 102.061 1.32542 103.066 1.23863L103.581 1.19523C103.634 1.15158 103.674 1.0948 103.698 1.0306C103.722 0.966394 103.729 0.897021 103.718 0.829444C103.719 0.756358 103.702 0.684081 103.669 0.619138C103.635 0.554195 103.586 0.49863 103.525 0.457461H103.476L100.994 0.519458L98.4754 0.445061H98.4381C98.3796 0.488057 98.3317 0.544004 98.2984 0.608532C98.265 0.67306 98.247 0.744422 98.2458 0.817044C98.2368 0.884523 98.2446 0.953174 98.2684 1.01696C98.2922 1.08074 98.3313 1.1377 98.3823 1.18283H98.4195L98.9345 1.22623C99.9333 1.31302 100.008 1.46802 100.008 3.60692V8.33731C100.008 10.7614 100.504 12.2555 101.621 13.1855C102.727 14.0082 104.091 14.4104 105.467 14.32C106.191 14.3421 106.913 14.2197 107.589 13.96C108.266 13.7002 108.884 13.3084 109.407 12.8073C110.381 11.7658 110.852 10.1662 110.852 7.91573V5.43584C110.852 4.30129 110.852 2.19958 111.119 1.60441C111.2 1.39982 111.553 1.24483 112 1.20763L112.546 1.16423L112.583 1.11463C112.628 1.05627 112.661 0.9893 112.679 0.917857C112.697 0.846414 112.7 0.772014 112.689 0.69925C112.682 0.641304 112.662 0.58561 112.631 0.536259C112.6 0.486908 112.558 0.445154 112.509 0.414062H112.447C111.752 0.451261 111.206 0.47606 110.35 0.47606C109.58 0.47606 108.836 0.47606 108.067 0.414062L107.992 0.457461Z" fill="white"/>
<path d="M118.19 0.439542H118.141C117.837 0.485223 117.53 0.508019 117.222 0.507739C116.875 0.507739 115.808 0.507739 114.97 0.445742H114.89C114.836 0.476728 114.79 0.519703 114.756 0.57132C114.721 0.622937 114.699 0.681802 114.691 0.743328C114.678 0.821303 114.682 0.901254 114.704 0.977387C114.725 1.05352 114.763 1.12393 114.815 1.18351H114.859L115.225 1.22691C115.645 1.25453 116.047 1.40791 116.379 1.66709C116.537 1.8487 116.656 2.06213 116.725 2.29309C116.795 2.52405 116.814 2.76719 116.782 3.00623V8.98276C116.782 10.0367 116.782 12.2252 116.528 12.8762C116.459 13.0374 116.174 13.1552 115.771 13.1862L115.2 13.2482L115.163 13.2854C115.117 13.3351 115.082 13.3939 115.061 13.458C115.039 13.5222 115.032 13.5901 115.039 13.6573C115.042 13.7248 115.059 13.7908 115.09 13.8508C115.121 13.9107 115.165 13.9632 115.218 14.0045H115.268C115.951 13.9673 116.478 13.9425 117.346 13.9425C118.047 13.9425 118.724 13.9425 119.692 14.0045H119.741C119.789 13.9709 119.829 13.9276 119.859 13.8774C119.889 13.8272 119.908 13.7712 119.915 13.7131V13.6263C119.915 13.5084 119.878 13.3934 119.809 13.2978V13.2668H119.76L119.108 13.2048C118.624 13.1676 118.296 13.056 118.196 12.8886C117.948 12.4236 117.855 10.4087 117.855 8.82156V4.48176C117.852 4.1401 117.868 3.79853 117.905 3.45881C118.234 3.82459 118.798 4.48796 119.232 5.00254L120.07 5.98209L124.723 11.2767C126.274 13.0312 127.012 13.9053 127.285 14.2897V14.3269H127.366C127.476 14.3371 127.586 14.3111 127.68 14.253C127.774 14.1948 127.847 14.1076 127.887 14.0045V13.9735C127.887 13.6945 127.831 12.8638 127.831 10.4521V5.41172C127.831 4.38256 127.831 2.24366 128.116 1.61749C128.116 1.56169 128.383 1.3943 129.134 1.2765L129.432 1.23311L129.469 1.19591C129.518 1.14197 129.554 1.0779 129.576 1.00825C129.597 0.938598 129.603 0.865081 129.593 0.792926C129.588 0.727152 129.568 0.663373 129.535 0.606437C129.501 0.5495 129.456 0.500904 129.401 0.464341H129.332C128.681 0.501539 128.16 0.526338 127.279 0.526338L125.033 0.445742C124.961 0.463621 124.896 0.502708 124.846 0.557961C124.796 0.613213 124.764 0.682097 124.754 0.755728V0.848724C124.751 0.914452 124.762 0.980122 124.786 1.04115C124.811 1.10219 124.849 1.15712 124.897 1.20211H124.94L125.287 1.25171C125.716 1.3075 126.299 1.4005 126.429 1.58649C126.665 1.96467 126.801 3.44641 126.801 5.65971V9.94991C126.801 10.1359 126.801 10.3653 126.801 10.5265C125.945 9.65853 124.99 8.61077 123.643 7.06704L121.695 4.87854L121.404 4.54996C120.504 3.5208 118.637 1.3943 118.302 0.513939L118.258 0.402344L118.19 0.439542Z" fill="white"/>
<path d="M132.664 0.457712C132.605 0.502956 132.557 0.561091 132.523 0.627698C132.49 0.694305 132.472 0.767629 132.472 0.842095C132.464 0.910444 132.472 0.979698 132.496 1.0443C132.519 1.1089 132.558 1.16705 132.608 1.21408H132.645L133.167 1.25128C134.184 1.33807 134.252 1.49927 134.252 3.67537V10.836C134.252 12.9811 134.19 13.1175 133.16 13.2353L132.633 13.2973L132.596 13.3345C132.546 13.3941 132.511 13.4641 132.493 13.5393C132.475 13.6145 132.474 13.6929 132.49 13.7685C132.494 13.829 132.512 13.8877 132.543 13.9396C132.575 13.9915 132.618 14.0349 132.67 14.0661L135.214 14.0041L137.733 14.0661H137.764C137.825 14.0234 137.875 13.9658 137.909 13.8986C137.943 13.8314 137.959 13.7568 137.956 13.6817C137.965 13.6142 137.957 13.5456 137.933 13.4818C137.91 13.418 137.87 13.3611 137.819 13.3159H137.788L137.274 13.2539C136.237 13.1361 136.175 12.9997 136.175 10.8546V3.73117C136.175 1.55506 136.25 1.39387 137.267 1.30707L137.807 1.26368H137.838C137.89 1.21759 137.929 1.15957 137.953 1.09471C137.977 1.02984 137.984 0.960125 137.975 0.891692C137.977 0.816713 137.961 0.74233 137.927 0.675234C137.893 0.608138 137.844 0.550433 137.782 0.50731H137.726L135.245 0.569307L132.732 0.445312L132.664 0.457712Z" fill="white"/>
<path d="M140.338 0.458008C140.278 0.497734 140.228 0.550971 140.193 0.613429C140.157 0.675887 140.137 0.74582 140.133 0.817592V0.85479C140.131 0.919162 140.143 0.983261 140.169 1.0423C140.194 1.10135 140.233 1.15381 140.282 1.19577H140.319L140.704 1.23917C141.486 1.33217 141.752 1.69175 142.205 2.7953C142.205 2.8387 142.435 3.37808 145.735 11.5183C146.105 12.3797 146.411 13.2664 146.653 14.1718V14.2152L146.722 14.2462C146.837 14.2902 146.958 14.3133 147.082 14.3144C147.187 14.3159 147.291 14.2857 147.379 14.2276V14.1842C147.727 13.093 148.688 10.7309 149.458 8.96403L150.543 6.48414C151.207 4.91508 151.953 3.38167 152.777 1.89014C152.867 1.71681 153 1.56908 153.162 1.46069C153.325 1.3523 153.512 1.28677 153.707 1.27017L154.446 1.25157L154.483 1.21437C154.529 1.1552 154.562 1.08737 154.582 1.01494C154.601 0.942507 154.605 0.866956 154.594 0.792793C154.589 0.731088 154.57 0.671323 154.539 0.617746C154.508 0.564169 154.465 0.518097 154.415 0.482807H154.353C153.689 0.520005 153.068 0.544804 152.417 0.544804C151.635 0.544804 150.878 0.544804 150.345 0.482807H150.277C150.22 0.522588 150.173 0.574311 150.139 0.634309C150.104 0.694308 150.084 0.761114 150.078 0.829991V0.885789C150.076 0.948067 150.087 1.01012 150.11 1.06783C150.134 1.12554 150.169 1.17761 150.214 1.22057H150.258L150.636 1.26397C151.257 1.33837 151.406 1.46856 151.412 1.49956C151.399 1.75191 151.34 1.99978 151.238 2.23113C150.897 3.09289 149.997 5.36819 149.377 6.71353V6.74453C149.061 7.50709 148.242 9.4786 147.603 10.8611C146.629 8.62304 145.741 6.37254 144.885 4.25224C144.503 3.35174 144.172 2.43069 143.893 1.49336C143.893 1.45616 144.004 1.35697 144.705 1.26397L145.028 1.22057V1.18957C145.073 1.14661 145.109 1.09454 145.132 1.03683C145.156 0.979117 145.167 0.917068 145.165 0.85479V0.811392C145.159 0.742515 145.138 0.675709 145.104 0.61571C145.07 0.555712 145.023 0.503989 144.966 0.464208H144.91C144.017 0.507606 143.316 0.526205 142.491 0.526205C141.665 0.526205 141.014 0.526205 140.412 0.464208L140.338 0.458008Z" fill="white"/>
<path d="M165.532 0.432958H165.477C165.259 0.488755 164.013 0.488755 162.809 0.488755H159.037C158.268 0.488755 157.604 0.488755 156.673 0.426758H156.605C156.544 0.469881 156.494 0.527586 156.46 0.594682C156.427 0.661778 156.41 0.736161 156.413 0.811141C156.401 0.879641 156.408 0.94988 156.432 1.01505C156.456 1.08022 156.496 1.13812 156.549 1.18312H156.58L156.928 1.25132C157.957 1.37532 158.02 1.50551 158.02 3.63201V10.8733C158.02 13.0122 157.895 13.1486 156.909 13.2354L156.196 13.3036L156.158 13.3408C156.109 13.4003 156.074 13.4704 156.055 13.5456C156.037 13.6208 156.036 13.6992 156.053 13.7748C156.056 13.8353 156.075 13.894 156.106 13.9459C156.137 13.9977 156.181 14.0411 156.233 14.0723H156.307L159.049 14.0103H160.855C162.635 14.0103 164.441 14.0103 166.227 14.0723H166.32L166.364 13.9855C166.743 13.0743 167.043 12.1328 167.263 11.1709V11.0841C167.232 11.0201 167.187 10.964 167.131 10.92C167.075 10.876 167.01 10.8452 166.941 10.8299C166.874 10.8089 166.803 10.8031 166.733 10.8127C166.663 10.8224 166.596 10.8473 166.538 10.8857C166.235 11.6042 165.768 12.2414 165.173 12.7456C164.745 12.9626 164.137 13.0308 162.691 13.0308C160.929 13.0308 160.569 12.8138 160.365 12.6092C160.079 12.3116 160.023 11.6545 160.023 10.6315V7.89122C160.023 7.49444 160.023 7.49444 160.545 7.49444H161.705C162.209 7.46877 162.715 7.49996 163.212 7.58744C163.541 7.66803 163.653 7.90982 163.727 8.20741L163.919 9.02577V9.05677C163.976 9.10961 164.044 9.14923 164.118 9.17281C164.192 9.19638 164.271 9.20334 164.348 9.19316C164.413 9.19102 164.478 9.17367 164.536 9.14248C164.594 9.1113 164.644 9.06711 164.683 9.01337V8.97617V8.21981L164.633 7.03566L164.683 5.79572V4.96495V4.92776C164.645 4.87409 164.595 4.83031 164.536 4.80009C164.478 4.76988 164.413 4.75413 164.348 4.75416C164.27 4.74263 164.192 4.74893 164.118 4.77257C164.043 4.79622 163.976 4.83659 163.919 4.89056V4.92776L163.758 5.76472C163.653 6.2607 163.522 6.30409 163.374 6.35369C162.825 6.45327 162.268 6.4907 161.711 6.46529H160.551C160.03 6.46529 160.03 6.46529 160.03 6.04991V2.07588C160.03 1.41871 160.03 1.41871 160.489 1.41871H161.891C162.53 1.39156 163.17 1.43104 163.802 1.53651C164.72 1.7659 164.906 2.34247 165.185 3.22283L165.222 3.34063C165.263 3.40226 165.319 3.45127 165.386 3.48198C165.453 3.51269 165.528 3.52387 165.601 3.51422C165.674 3.51531 165.746 3.50032 165.812 3.47032C165.879 3.44031 165.938 3.39603 165.985 3.34063V3.29103V2.99964C165.936 2.18189 165.834 1.3681 165.681 0.563152V0.513554V0.439157L165.532 0.432958Z" fill="white"/>
<path d="M170.075 0.6318C170.009 0.664385 169.953 0.713641 169.913 0.774597C169.873 0.835553 169.849 0.906053 169.845 0.978985C169.835 1.05585 169.845 1.13401 169.874 1.20575C169.904 1.2775 169.951 1.34037 170.012 1.38817H170.05L170.707 1.46876C171.365 1.54936 171.464 1.69195 171.464 3.66966V10.8737C171.464 12.9816 171.402 13.118 170.385 13.2358L169.826 13.304L169.789 13.3474C169.742 13.4117 169.709 13.4854 169.693 13.5635C169.677 13.6416 169.678 13.7223 169.696 13.8C169.703 13.8562 169.723 13.9099 169.754 13.9572C169.786 14.0045 169.827 14.044 169.876 14.0728H169.957C170.968 14.0294 171.675 14.0108 172.438 14.0108C173.201 14.0108 173.847 14.0108 174.821 14.0728H174.876C174.934 14.0375 174.982 13.9884 175.015 13.9299C175.049 13.8714 175.067 13.8054 175.069 13.738C175.08 13.6653 175.075 13.5911 175.055 13.5205C175.034 13.4499 174.999 13.3845 174.951 13.3288H174.914L174.473 13.2668C173.443 13.1242 173.394 13.0188 173.394 10.9047V8.35045C173.394 8.05287 173.394 8.05287 174.188 8.05287C174.982 8.05287 175.23 8.23886 175.497 8.62944L176.508 10.1918L177.457 11.6611C179.169 14.0914 180.764 15.2755 182.34 15.2755C182.651 15.2852 182.963 15.2497 183.264 15.1701C183.313 15.1417 183.355 15.1012 183.384 15.0524C183.413 15.0035 183.43 14.9481 183.432 14.8912V14.8416C183.425 14.7916 183.405 14.7442 183.375 14.704C183.345 14.6637 183.304 14.6321 183.258 14.6122C182.764 14.5808 182.293 14.3942 181.912 14.079C180.491 12.8886 178.723 10.0368 177.302 7.74908C177.238 7.6684 177.198 7.572 177.184 7.47009C177.805 7.2097 179.728 6.23015 179.728 4.01065C179.753 3.40472 179.602 2.80445 179.293 2.28276C178.983 1.76108 178.529 1.34045 177.985 1.07198C176.911 0.596065 175.739 0.383502 174.566 0.452008C172.736 0.445809 171.309 0.495406 170.075 0.6318ZM173.387 6.57113V1.87174C173.387 1.41297 173.387 1.37577 174.548 1.37577C174.949 1.34081 175.353 1.39205 175.733 1.52604C176.112 1.66003 176.459 1.87366 176.749 2.1526C177.04 2.43154 177.267 2.76932 177.416 3.14326C177.564 3.5172 177.632 3.91865 177.612 4.32063C177.654 4.76238 177.59 5.20767 177.424 5.61956C177.259 6.03144 176.998 6.39804 176.663 6.68893C176.072 7.05842 175.379 7.22999 174.684 7.17871C174.26 7.21954 173.831 7.20076 173.412 7.12291C173.375 6.93306 173.367 6.73868 173.387 6.54633V6.57113Z" fill="white"/>
<path d="M184.07 3.78139C184.07 5.51111 185.28 6.67666 186.303 7.34623L188.208 8.58617C189.598 9.47893 189.784 10.4027 189.784 11.2706C189.788 11.5723 189.728 11.8715 189.608 12.1484C189.489 12.4254 189.312 12.6739 189.089 12.8777C188.866 13.0815 188.603 13.2358 188.317 13.3307C188.03 13.4256 187.726 13.4588 187.426 13.4282C185.391 13.4282 184.498 11.8658 184.113 10.5453C184.082 10.4916 184.036 10.4472 183.982 10.4167C183.927 10.3862 183.866 10.3707 183.803 10.3717C183.722 10.3695 183.641 10.3856 183.567 10.4189C183.493 10.4521 183.427 10.5017 183.375 10.5639V10.6135C183.41 11.593 183.596 12.5613 183.927 13.484L183.958 13.5149C184.941 14.043 186.044 14.3058 187.159 14.2775C189.802 14.2775 191.577 12.7276 191.577 10.4213C191.577 8.82176 190.733 7.51982 189.002 6.44727L187.395 5.44291C186.309 4.74234 185.757 3.95498 185.757 3.10562C185.757 2.48564 185.981 1.02251 188.003 1.02251C189.777 1.02251 190.317 2.17566 190.59 3.18001C190.63 3.23243 190.683 3.27325 190.745 3.29831C190.806 3.32336 190.872 3.33175 190.938 3.32261C191.015 3.32202 191.091 3.30451 191.161 3.2713C191.23 3.23809 191.292 3.19 191.341 3.13042V3.08702C191.334 2.24705 191.208 1.41227 190.969 0.607129V0.563731V0.507934H190.863C190.643 0.506242 190.423 0.485499 190.206 0.445936C189.588 0.272794 188.949 0.185181 188.307 0.185548C185.77 0.185548 184.07 1.63008 184.07 3.78139Z" fill="white"/>
<path d="M195.001 0.457712C194.942 0.502956 194.894 0.561091 194.861 0.627698C194.827 0.694305 194.81 0.767629 194.809 0.842095C194.801 0.910473 194.809 0.979875 194.832 1.04456C194.856 1.10924 194.895 1.16735 194.946 1.21408H194.983L195.504 1.25128C196.521 1.33807 196.59 1.49927 196.59 3.67537V10.836C196.59 12.9811 196.528 13.1175 195.491 13.2353L194.946 13.3035L194.908 13.3407C194.859 13.3991 194.824 13.4681 194.805 13.5423C194.787 13.6165 194.786 13.6939 194.803 13.7685C194.805 13.8301 194.823 13.8901 194.854 13.9431C194.886 13.9961 194.93 14.0405 194.983 14.0723H195.02L197.564 14.0103L200.076 14.0723H200.113C200.175 14.031 200.225 13.9745 200.259 13.9083C200.293 13.8421 200.309 13.7683 200.306 13.6941C200.316 13.6257 200.309 13.5558 200.285 13.4908C200.261 13.4259 200.221 13.3679 200.169 13.3221H200.138L199.623 13.2601C198.587 13.1423 198.525 13.0059 198.525 10.8608V3.73117C198.525 1.55506 198.6 1.39387 199.617 1.30707L200.157 1.26368H200.188C200.239 1.21759 200.279 1.15957 200.303 1.09471C200.326 1.02984 200.334 0.960125 200.324 0.891692C200.327 0.816713 200.31 0.74233 200.277 0.675234C200.243 0.608138 200.193 0.550433 200.132 0.50731H200.076L197.595 0.569307L195.039 0.445312L195.001 0.457712Z" fill="white"/>
<path d="M203.495 0.0734769H203.464L203.457 0.172672C203.268 1.16976 203.007 2.15187 202.676 3.11134V3.17334C202.714 3.23746 202.766 3.29306 202.826 3.33675C202.887 3.38045 202.956 3.41134 203.029 3.42753C203.096 3.44522 203.165 3.44829 203.232 3.43651C203.3 3.42473 203.364 3.3984 203.42 3.35933C203.603 2.85424 203.901 2.39812 204.289 2.02639C204.729 1.61721 205.734 1.56141 206.659 1.56141H207.8C208.253 1.56141 208.253 1.56141 208.253 2.05739V10.8734C208.253 13.0123 208.129 13.1487 207.143 13.2355L206.386 13.2975H206.355C206.294 13.3426 206.245 13.403 206.215 13.4727C206.184 13.5423 206.173 13.6187 206.181 13.6943C206.179 13.7651 206.195 13.8353 206.227 13.8982C206.26 13.9612 206.308 14.0148 206.367 14.0538H206.404L209.202 13.9919L211.864 14.0538C211.926 14.0125 211.976 13.9561 212.009 13.8898C212.043 13.8236 212.059 13.7499 212.056 13.6757C212.067 13.6072 212.06 13.5371 212.036 13.4721C212.012 13.407 211.972 13.3491 211.92 13.3037H211.882L211.225 13.2417C210.214 13.1363 210.152 13.0061 210.152 10.8796V2.05739C210.135 1.9117 210.147 1.7641 210.189 1.62341C210.32 1.58613 210.456 1.57352 210.592 1.58621H212.013C212.79 1.51489 213.57 1.67908 214.252 2.05739C214.545 2.45198 214.701 2.93043 214.699 3.42133V3.45852C214.755 3.51211 214.823 3.55222 214.897 3.57584C214.971 3.59946 215.05 3.60599 215.127 3.59492C215.196 3.59216 215.263 3.57192 215.321 3.53612C215.38 3.50031 215.428 3.45013 215.462 3.39033V3.32833C215.469 2.32329 215.605 1.32328 215.865 0.352464V0.321466V0.271868C215.772 0.092076 215.456 0.0858763 215.319 0.141674H215.288C215.04 0.575654 214.941 0.625252 213.849 0.625252H205.579C204.649 0.625252 204.196 0.625252 204.103 0.123075V0.0858763C204.011 0.0318309 203.907 0.00230076 203.8 0.000129094C203.694 -0.00204257 203.589 0.0232173 203.495 0.0734769Z" fill="white"/>
<path d="M217.541 0.451172C217.49 0.483226 217.447 0.525921 217.415 0.57626C217.383 0.626598 217.362 0.683359 217.354 0.742559C217.341 0.818247 217.343 0.895952 217.361 0.970689C217.379 1.04542 217.413 1.11554 217.46 1.17654H217.503L218.087 1.28193C218.657 1.37493 218.912 1.46173 219.563 2.72647L221.933 7.33906C222.396 8.05662 222.614 8.90512 222.553 9.75695V10.7799C222.553 12.9436 222.491 13.0738 221.48 13.1792L220.804 13.2474L220.773 13.2846C220.724 13.3436 220.689 13.4124 220.67 13.4862C220.651 13.5601 220.648 13.6372 220.661 13.7124C220.666 13.7741 220.685 13.8339 220.718 13.8867C220.75 13.9395 220.794 13.9839 220.847 14.0162H220.884L223.521 13.9542L226.282 14.0162H226.319C226.371 13.985 226.415 13.9415 226.446 13.8897C226.477 13.8378 226.496 13.7791 226.499 13.7186C226.516 13.643 226.515 13.5646 226.497 13.4894C226.478 13.4142 226.443 13.3441 226.394 13.2846H226.344L225.562 13.2226C224.625 13.1544 224.489 12.9994 224.489 10.8233V9.79415C224.489 8.29382 224.489 8.11403 225.413 6.61989L226.654 4.43139L227.002 3.81142C227.783 2.44128 228.348 1.45553 229.198 1.33153L229.824 1.25094H229.855C229.907 1.20326 229.947 1.14428 229.971 1.07865C229.996 1.01301 230.005 0.942528 229.998 0.872753C229.994 0.801729 229.974 0.732484 229.94 0.670209C229.906 0.607934 229.858 0.554246 229.8 0.513169H229.737C229.018 0.556567 228.459 0.575166 227.876 0.575166C227.293 0.575166 226.729 0.575166 225.959 0.513169H225.885C225.83 0.545158 225.783 0.589087 225.748 0.641684C225.712 0.694282 225.689 0.754192 225.68 0.816955V0.903752C225.679 1.03282 225.728 1.15736 225.817 1.25094H225.86L226.245 1.29433C226.492 1.30631 226.734 1.37413 226.952 1.49273C226.614 2.30324 226.227 3.09211 225.792 3.85482L225.699 4.02841C225.078 5.21256 224.421 6.37191 223.943 7.18407C223.434 6.26031 222.932 5.26835 222.386 4.15241L221.803 2.96826C221.559 2.49277 221.352 1.99951 221.182 1.49273C221.182 1.39973 221.728 1.30673 221.902 1.27573L222.194 1.23234H222.231C222.317 1.13779 222.364 1.01336 222.361 0.885152C222.367 0.844006 222.367 0.802304 222.361 0.761158C222.351 0.699201 222.324 0.641116 222.284 0.593082C222.244 0.545048 222.191 0.508861 222.131 0.48837H222.069C221.536 0.525569 220.829 0.550367 219.91 0.550367C218.992 0.550367 218.242 0.550367 217.59 0.48837H217.522L217.541 0.451172Z" fill="white"/>
<path d="M0.725858 3.78139C0.725858 5.51111 2.00386 6.67666 3.07094 7.35243L5.0748 8.59237C6.53272 9.48513 6.73124 10.4089 6.73124 11.2768C6.73124 12.3494 5.96196 13.4344 4.24968 13.4344C2.10933 13.4344 1.14772 11.8658 0.769285 10.5515C0.735517 10.4968 0.687918 10.4519 0.631283 10.4214C0.574648 10.391 0.510976 10.3759 0.446682 10.3779C0.364085 10.3727 0.281355 10.3856 0.204224 10.4156C0.127094 10.4455 0.0574093 10.4919 0 10.5515V10.5949C0.0209358 11.0108 0.0685973 11.425 0.14269 11.8348C0.200944 12.2399 0.290127 12.6399 0.409458 13.0314C0.497963 13.3125 0.629832 13.5782 0.800305 13.8187C0.871527 13.9116 0.967575 13.9824 1.07735 14.023C1.18713 14.0635 1.30616 14.0723 1.4207 14.0481C1.64656 14.0331 1.87339 14.0435 2.09692 14.0791C2.70677 14.2235 3.33138 14.2963 3.9581 14.2961C6.73124 14.2961 8.59242 12.7462 8.59242 10.4399C8.59242 8.83416 7.70526 7.53842 5.88751 6.46587L4.21866 5.51731C3.07094 4.81674 2.50018 4.02937 2.50018 3.18001C2.50018 2.56004 2.72972 1.09691 4.85766 1.09691C6.71884 1.09691 7.2958 2.25005 7.58118 3.25441C7.62438 3.30643 7.67997 3.34675 7.74285 3.37167C7.80573 3.39659 7.87388 3.4053 7.94101 3.397C8.02028 3.39629 8.09858 3.37942 8.17112 3.34744C8.24365 3.31546 8.3089 3.26904 8.36287 3.21101V3.16761C8.36202 2.43706 8.26609 1.70973 8.07749 1.00391V0.886115C8.03407 0.631927 7.94101 0.210346 7.59359 0.191747L7.27719 0.247544H7.19654H7.12209C7.00068 0.290184 6.87221 0.309126 6.74365 0.303342L6.4955 0.259944H6.26595C5.90403 0.211114 5.53927 0.186261 5.17406 0.185547C2.51258 0.185547 0.725858 1.63008 0.725858 3.78139Z" fill="white"/>
</svg>
