<svg width="230" height="70" viewBox="0 0 230 70" fill="none" xmlns="http://www.w3.org/2000/svg">
<g clip-path="url(#clip0_8395_225)">
<path d="M53.4459 0.91406C52.8483 1.06639 49.7782 1.06639 46.5323 1.06639H36.8767C34.8964 1.06639 33.1973 1.06639 30.8068 0.902342C30.6846 0.994982 30.5867 1.11586 30.5214 1.25463C30.4561 1.3934 30.4253 1.54593 30.4319 1.69916C30.4319 1.87493 30.4319 2.28506 30.6779 2.46083L31.5451 2.56629C34.4394 2.91783 34.5332 3.51545 34.5332 8.88227V27.3966C34.5332 32.8338 34.2519 33.4197 31.4982 33.6657L29.7405 33.8181C29.6427 33.9491 29.5734 34.0992 29.5371 34.2586C29.5008 34.418 29.4982 34.5833 29.5296 34.7438C29.5363 34.8688 29.5727 34.9903 29.6359 35.0984C29.6991 35.2064 29.7872 35.2978 29.8928 35.3648L36.9236 35.2125H41.5405C46.0871 35.2125 50.7156 35.2125 55.3208 35.3648H55.4263V35.2711C56.4115 32.9482 57.1956 30.545 57.7699 28.088C57.7058 27.954 57.6125 27.8361 57.4969 27.7428C57.3814 27.6496 57.2464 27.5833 57.1019 27.549C56.9595 27.5047 56.809 27.4923 56.6612 27.5125C56.5134 27.5328 56.3718 27.5852 56.2465 27.6661C54.9927 30.1621 53.6217 32.0487 52.6608 32.576C51.7 33.1033 49.9423 33.3259 46.1574 33.3259C41.5639 33.3259 40.6031 32.74 40.0523 32.1541C39.2672 31.3222 39.1149 29.5996 39.1149 26.9162V19.78C39.1149 18.6082 39.1149 18.6082 40.6499 18.6082H43.638C44.9482 18.5442 46.2614 18.6307 47.5518 18.866C47.9556 18.9826 48.3137 19.2206 48.5778 19.5475C48.8419 19.8745 48.9992 20.2747 49.0283 20.694L49.5087 22.7446C49.6327 22.8531 49.7782 22.9342 49.9357 22.9827C50.0932 23.0312 50.2591 23.0459 50.4227 23.0258C50.5562 23.0279 50.6881 22.9969 50.8067 22.9356C50.9253 22.8742 51.0269 22.7845 51.1023 22.6743L51.0203 20.7291L50.868 17.577L50.9852 14.4131L51.0672 12.3391C50.9917 12.2289 50.8902 12.1392 50.7716 12.0778C50.653 12.0165 50.5211 11.9854 50.3875 11.9875C50.224 11.9675 50.058 11.9822 49.9006 12.0307C49.7431 12.0791 49.5976 12.1603 49.4735 12.2688L49.0517 14.4249C48.7939 15.7256 48.4306 15.9248 47.8799 16.1005C46.4539 16.358 45.0037 16.4562 43.556 16.3935H40.5679C39.0328 16.3935 39.0329 16.3935 39.0329 15.1162V4.87473C39.0329 2.97642 39.0329 2.97642 40.4156 2.97642H44.1184C45.7768 2.90688 47.4378 3.00898 49.0751 3.28109C51.5593 3.90214 52.0632 5.51922 52.7311 7.75734L52.8249 8.06201C52.9199 8.17055 53.0401 8.25405 53.175 8.30514C53.3098 8.35623 53.4552 8.37334 53.5983 8.35496C53.7497 8.35742 53.8998 8.32609 54.0377 8.26325C54.1755 8.20041 54.2976 8.10765 54.3951 7.9917V7.26519C54.2718 5.16944 54.0174 3.08347 53.6334 1.01952V0.878906L53.4459 0.91406Z" fill="white"/>
<path d="M98.0204 0.129127H97.9618V0.234589C97.5552 2.71484 96.9558 5.15959 96.1689 7.54659V7.6169C96.251 7.7563 96.3611 7.8772 96.4921 7.97199C96.6232 8.06677 96.7725 8.13339 96.9306 8.16764C97.0668 8.20468 97.2093 8.21234 97.3487 8.19011C97.4881 8.16789 97.6212 8.1163 97.7392 8.03875C98.1791 6.76228 98.9231 5.61207 99.907 4.68741C101.079 3.59764 103.727 3.44531 106.129 3.44531H108.977C110.359 3.44531 110.359 3.44531 110.359 4.93349V27.4437C110.359 32.8808 110.078 33.4667 107.324 33.7128L105.461 33.8651C105.337 33.9604 105.24 34.0858 105.179 34.2294C105.117 34.373 105.093 34.53 105.11 34.6854C105.106 34.8304 105.136 34.9742 105.2 35.1048C105.263 35.2353 105.357 35.3487 105.473 35.4353L112.656 35.283L119.417 35.4353C119.536 35.3372 119.632 35.2136 119.697 35.0737C119.762 34.9337 119.794 34.781 119.792 34.6268C119.811 34.4885 119.798 34.3478 119.753 34.2156C119.708 34.0835 119.633 33.9635 119.535 33.8651L117.847 33.7128C114.976 33.4198 114.836 32.8105 114.836 27.4437V4.8749C114.836 4.1601 114.836 3.7031 114.988 3.60936C115.14 3.51562 115.539 3.44531 116.16 3.44531H119.16C121.972 3.44531 122.605 3.86715 123.753 4.69913C124.292 5.10926 124.737 6.26934 124.925 8.21452V8.2028C125.047 8.31401 125.192 8.39606 125.351 8.44275C125.509 8.48944 125.676 8.49955 125.839 8.47231C125.978 8.4681 126.114 8.42952 126.235 8.36C126.355 8.29049 126.457 8.1922 126.53 8.0739C126.458 5.57098 126.714 3.0694 127.292 0.632999V0.574409C127.128 0.258025 126.436 0.234589 126.12 0.351768C125.417 1.59387 125.054 1.52356 122.253 1.52356H103.247C100.997 1.52356 99.5203 1.68762 99.2391 0.222871V0.175999C99.0545 0.0710871 98.8475 0.0120654 98.6354 0.00390811C98.4233 -0.00424919 98.2124 0.038697 98.0204 0.129127Z" fill="white"/>
<path d="M133.116 0.128758V0.234219C132.682 2.71651 132.055 5.16123 131.241 7.54622V7.61653C131.323 7.75593 131.433 7.87683 131.564 7.97162C131.695 8.0664 131.845 8.13302 132.003 8.16727C132.141 8.20454 132.285 8.21233 132.427 8.19012C132.568 8.16791 132.703 8.11621 132.823 8.03838C133.271 6.76016 134.023 5.61002 135.014 4.68704C136.186 3.59727 137.545 3.44494 139.948 3.44494H141.494C142.877 3.44494 142.877 3.44494 142.877 4.93312V27.4433C142.877 32.8804 142.596 33.4663 139.83 33.7124L137.944 33.8647C137.82 33.959 137.722 34.0847 137.663 34.2288C137.603 34.373 137.583 34.5304 137.604 34.685C137.6 34.8287 137.63 34.9713 137.691 35.1015C137.752 35.2317 137.843 35.3458 137.956 35.435L145.139 35.2826L151.9 35.435C152.019 35.3368 152.114 35.2132 152.179 35.0733C152.244 34.9334 152.277 34.7806 152.275 34.6264C152.275 34.4624 152.275 34.0405 152.017 33.8647L150.33 33.7124C147.482 33.4195 147.389 32.8218 147.389 27.4433V4.87453C147.389 4.15973 147.389 3.70273 147.541 3.60899C147.693 3.51525 148.092 3.44494 148.713 3.44494H152.357C155.169 3.44494 157.044 3.86679 158.216 4.69876C158.767 5.10889 159.2 6.24553 159.388 8.21415V8.20243C159.51 8.31291 159.656 8.39449 159.814 8.44114C159.972 8.48778 160.139 8.49831 160.302 8.47194C160.45 8.50506 160.605 8.4975 160.749 8.45006C160.893 8.40262 161.022 8.31706 161.122 8.20243C161.05 5.69951 161.306 3.19793 161.884 0.761527V0.550604C161.72 0.234219 161.04 0.210783 160.712 0.327963C159.997 1.57007 159.634 1.49976 156.845 1.49976H138.342C136.104 1.49976 134.616 1.66381 134.346 0.199065V0.17563C134.16 0.0715353 133.951 0.0130363 133.737 0.00489162C133.523 -0.00325312 133.31 0.0391864 133.116 0.128758Z" fill="white"/>
<path d="M181.699 0.902344L175.371 1.0664L168.657 0.902344C168.411 1.01952 168.305 1.40622 168.282 1.69916C168.259 1.83753 168.271 1.97936 168.316 2.11218C168.361 2.245 168.438 2.36473 168.54 2.46083L169.864 2.56629C172.934 2.81237 173.063 3.51545 173.063 8.88227V27.3966C173.063 32.7752 172.957 33.3728 170.122 33.6657L168.516 33.8181C168.418 33.9491 168.349 34.0992 168.313 34.2586C168.276 34.418 168.274 34.5833 168.305 34.7438C168.317 34.8675 168.356 34.9871 168.418 35.0944C168.481 35.2016 168.567 35.2939 168.669 35.3648L175.383 35.2125H180.07C185.706 35.2125 190.37 35.2711 192.866 35.3648H192.972V35.2828C193.943 32.9707 194.7 30.574 195.233 28.1231C195.222 28.0217 195.182 27.9257 195.117 27.8467C195.053 27.7676 194.967 27.709 194.87 27.6779C194.688 27.5871 194.487 27.5398 194.284 27.5398C194.081 27.5398 193.88 27.5871 193.698 27.6779C192.761 30.0215 191.448 32.0369 190.37 32.6814C189.573 33.1267 188.495 33.3259 184.171 33.3259C180.351 33.3259 179.273 32.7869 178.687 32.1541C177.809 31.2284 177.656 29.916 177.656 26.7053V8.92914C177.656 3.56232 177.762 2.85924 180.644 2.61317L181.922 2.5077C182.179 2.33193 182.179 1.92181 182.168 1.74604C182.174 1.59281 182.143 1.44028 182.078 1.30151C182.013 1.16273 181.915 1.04186 181.793 0.949216L181.699 0.902344Z" fill="white"/>
<path d="M224.797 0.91406C224.199 1.06639 221.141 1.06639 217.895 1.06639H208.228C206.259 1.06639 204.56 1.06639 202.169 0.902342C201.923 1.01952 201.818 1.40621 201.806 1.69916C201.794 1.99211 201.806 2.28506 202.052 2.46083L202.908 2.56629C205.814 2.91783 205.907 3.51545 205.907 8.88227V27.3966C205.907 32.8338 205.626 33.4197 202.861 33.6657L201.115 33.8181C201.013 33.9469 200.941 34.0969 200.904 34.257C200.868 34.4172 200.868 34.5835 200.904 34.7438C200.912 34.8671 200.948 34.987 201.009 35.0946C201.069 35.2021 201.154 35.2945 201.255 35.3648L208.286 35.2125H212.973C217.508 35.2125 222.149 35.2125 226.754 35.3648H226.859V35.2711C227.839 32.9462 228.623 30.5435 229.203 28.088C229.133 27.9575 229.038 27.8425 228.923 27.75C228.807 27.6574 228.674 27.5894 228.532 27.5499C228.389 27.5105 228.24 27.5004 228.094 27.5204C227.947 27.5404 227.806 27.59 227.679 27.6661C226.426 30.1621 225.055 32.0487 224.094 32.576C222.922 33.1502 221.375 33.3259 217.59 33.3259C212.997 33.3259 212.024 32.74 211.473 32.1541C210.7 31.3222 210.548 29.5996 210.548 26.9162V19.78C210.548 18.6082 210.548 18.6082 212.083 18.6082H215.071C216.381 18.5447 217.694 18.6312 218.985 18.866C219.349 19.0055 219.666 19.246 219.899 19.5595C220.131 19.8729 220.269 20.2461 220.297 20.6354L220.766 22.686C220.89 22.7945 221.035 22.8757 221.193 22.9241C221.35 22.9726 221.516 22.9873 221.68 22.9672C221.813 22.9693 221.945 22.9383 222.064 22.877C222.182 22.8156 222.284 22.7259 222.359 22.6157L222.277 20.6705L222.219 17.577L222.348 14.4131L222.43 12.3391C222.352 12.2311 222.25 12.1429 222.132 12.0818C222.014 12.0207 221.883 11.9884 221.75 11.9875C221.587 11.9675 221.421 11.9822 221.263 12.0307C221.106 12.0791 220.96 12.1603 220.836 12.2688L220.426 14.4249C220.156 15.7256 219.805 15.9248 219.254 16.1005C217.832 16.3588 216.386 16.4571 214.942 16.3935H211.954C210.419 16.3935 210.419 16.3935 210.419 15.1162V4.87473C210.419 2.97642 210.419 2.97642 211.802 2.97642H215.504C217.159 2.90626 218.816 3.00836 220.449 3.28109C222.922 3.90214 223.437 5.51922 224.152 7.75734L224.246 8.06201C224.339 8.17043 224.457 8.25401 224.59 8.30517C224.723 8.35633 224.866 8.37344 225.008 8.35496C225.161 8.35594 225.312 8.324 225.452 8.26133C225.591 8.19865 225.715 8.10669 225.816 7.9917L225.746 7.25347C225.635 5.16051 225.38 3.07764 224.984 1.01952V0.878906L224.797 0.91406Z" fill="white"/>
<path d="M20.0026 48.1611L17.0614 48.2432L13.9913 48.1611C13.8911 48.1783 13.7992 48.2276 13.7294 48.3016C13.6596 48.3756 13.6158 48.4702 13.6046 48.5713C13.5816 48.6888 13.5901 48.8103 13.6292 48.9234C13.6683 49.0366 13.7366 49.1375 13.8272 49.2158L14.4249 49.3095C14.6731 49.3109 14.9176 49.3698 15.1392 49.4816C15.3609 49.5934 15.5535 49.7551 15.7021 49.954C16.206 50.7742 16.206 53.7506 16.206 55.356V58.8713C16.206 63.3945 14.5303 65.6912 11.2141 65.6912C7.89795 65.6912 6.35118 63.3476 6.35118 58.7893V52.403C6.35118 49.5439 6.53867 49.5204 7.76905 49.3329L8.47213 49.2158C8.5445 49.1313 8.59684 49.0315 8.62525 48.924C8.65365 48.8165 8.65739 48.7039 8.63618 48.5947C8.62602 48.5102 8.5964 48.4291 8.54963 48.358C8.50287 48.2868 8.44024 48.2274 8.36667 48.1846L4.61692 48.2666L0.996075 48.1611C0.922504 48.204 0.859876 48.2634 0.813112 48.3345C0.766349 48.4057 0.736723 48.4867 0.726563 48.5713C0.7002 48.6816 0.698072 48.7964 0.720324 48.9076C0.742576 49.0189 0.78868 49.124 0.85546 49.2158L1.38277 49.3095C2.55456 49.497 2.81236 49.5204 2.81236 52.3796V59.4104C2.81236 62.2813 3.42169 64.2616 4.68723 65.4685C5.95277 66.6755 7.83936 67.2966 10.5462 67.2966C11.5706 67.3418 12.5934 67.1758 13.551 66.8089C14.5085 66.442 15.3803 65.8821 16.1122 65.1639C17.3895 63.7812 17.9871 61.7071 17.9871 58.637V55.3794C17.8693 53.5662 17.9955 51.7454 18.3621 49.9657C18.5144 49.6142 18.9011 49.5087 19.4753 49.3798L20.1315 49.2392C20.2034 49.1703 20.2587 49.086 20.2932 48.9926C20.3278 48.8992 20.3406 48.7992 20.3307 48.7002C20.3266 48.6029 20.3002 48.5079 20.2535 48.4226C20.2067 48.3372 20.1409 48.2638 20.0612 48.208L20.0026 48.1611Z" fill="white"/>
<path d="M33.0325 48.1611L31.1341 48.2432H30.7709C30.0209 48.2432 28.7554 48.2432 27.8648 48.1611C27.7637 48.1807 27.6715 48.2322 27.6018 48.3082C27.5322 48.3842 27.4888 48.4805 27.4781 48.583C27.4481 48.6973 27.4474 48.8174 27.4761 48.9321C27.5047 49.0468 27.5619 49.1524 27.6422 49.2392L28.0992 49.3329C28.5938 49.4297 29.069 49.6079 29.5053 49.8602C30.3725 50.5985 30.3725 50.9617 30.3608 52.9772V59.7619C30.4651 61.5736 30.351 63.3912 30.0209 65.1756C29.8569 65.5506 29.4233 65.6443 28.9195 65.7263L28.2515 65.8787C28.1787 65.9493 28.1229 66.0356 28.0883 66.1311C28.0538 66.2265 28.0415 66.3285 28.0523 66.4294C28.0563 66.5283 28.0827 66.625 28.1294 66.7122C28.176 66.7995 28.2418 66.8751 28.3218 66.9333L31.2513 66.8513L34.4152 66.9333C34.5126 66.9084 34.6004 66.855 34.6673 66.7798C34.7341 66.7046 34.7769 66.6112 34.7901 66.5114C34.797 66.4648 34.797 66.4174 34.7901 66.3708C34.793 66.271 34.7734 66.1718 34.7328 66.0806C34.6923 65.9893 34.6318 65.9083 34.5558 65.8435L33.9816 65.7732C33.2434 65.656 32.8684 65.4803 32.6809 65.1522C32.2005 64.3202 32.2005 61.3555 32.2005 59.7619V54.3482C32.2005 53.5983 32.2005 53.1764 32.2005 52.8717C32.5403 53.2116 33.0442 53.7857 33.8176 54.6529L35.1534 56.1762L41.6569 63.5937C43.6255 65.8435 44.4457 66.8044 44.891 67.3903V67.4489H44.9613C45.1661 67.4774 45.3748 67.4512 45.5662 67.373C45.7576 67.2948 45.9249 67.1674 46.0511 67.0036V66.945C46.0511 66.6521 45.9691 65.574 45.9691 62.0703V55.3794C45.8537 53.5662 45.9798 51.7457 46.344 49.9657C46.4964 49.6259 46.8362 49.5087 47.4221 49.4149L48.1603 49.2157C48.2332 49.1451 48.289 49.0588 48.3235 48.9634C48.358 48.8679 48.3704 48.7659 48.3595 48.665C48.3555 48.5661 48.3292 48.4694 48.2825 48.3822C48.2358 48.2949 48.17 48.2194 48.09 48.1611L45.1371 48.2432L41.9498 48.1611C41.8518 48.1832 41.7627 48.234 41.6938 48.3071C41.6249 48.3801 41.5794 48.4721 41.5631 48.5713C41.5574 48.618 41.5574 48.6652 41.5631 48.7119C41.5617 48.8132 41.5819 48.9137 41.6223 49.0066C41.6627 49.0995 41.7224 49.1828 41.7975 49.2509L42.4771 49.3329C43.2036 49.4501 43.5552 49.6259 43.7544 49.954C44.2583 50.7977 44.2583 53.6451 44.2583 55.356V60.7696C44.2653 60.8984 44.2653 61.0275 44.2583 61.1563C43.8247 60.7228 42.6412 59.3987 41.7389 58.3909L40.4265 56.9379L37.6493 53.9381C35.9855 52.1861 34.4979 50.2746 33.2082 48.2314V48.126L33.0325 48.1611Z" fill="white"/>
<path d="M65.1048 48.1611L61.4136 48.2432L57.6287 48.1611C57.5539 48.2042 57.491 48.2654 57.446 48.3391C57.4009 48.4129 57.3751 48.4967 57.3709 48.583C57.346 48.6939 57.3479 48.8092 57.3764 48.9192C57.4049 49.0293 57.4593 49.1309 57.535 49.2158L58.1912 49.2978C59.363 49.4501 59.6208 49.4853 59.6208 52.3444V62.6797C59.6208 65.5389 59.3981 65.5623 58.2029 65.7146L57.535 65.8084C57.4599 65.896 57.4061 65.9997 57.3776 66.1114C57.3492 66.2232 57.3469 66.3401 57.3709 66.4529C57.3751 66.5391 57.4009 66.623 57.446 66.6967C57.491 66.7704 57.5539 66.8316 57.6287 66.8747L61.4136 66.7927L65.1399 66.8747C65.215 66.8307 65.2785 66.7695 65.3254 66.6962C65.3722 66.6229 65.401 66.5395 65.4095 66.4529C65.4279 66.3399 65.4229 66.2244 65.3946 66.1135C65.3664 66.0026 65.3156 65.8987 65.2454 65.8084L64.5775 65.7146C63.4057 65.5623 63.1596 65.5389 63.1596 62.6797V52.403C63.1596 49.5439 63.3705 49.5087 64.5775 49.3564L65.2454 49.2743C65.3159 49.1865 65.367 49.0846 65.3953 48.9756C65.4236 48.8665 65.4284 48.7526 65.4095 48.6416C65.401 48.555 65.3722 48.4716 65.3254 48.3983C65.2785 48.3249 65.215 48.2638 65.1399 48.2197H65.0696L65.1048 48.1611Z" fill="white"/>
<path d="M93.0518 48.1611L90.3684 48.2432L87.3451 48.1611C87.2777 48.2112 87.2212 48.2743 87.1789 48.3468C87.1366 48.4194 87.1094 48.4997 87.0991 48.583C87.0991 48.583 87.0991 48.665 87.0991 48.7119C87.0997 48.8912 87.1618 49.0649 87.2748 49.204L88.1302 49.4149C88.4818 49.497 88.6575 49.5673 88.7161 49.6845C88.7226 49.735 88.7226 49.7862 88.7161 49.8368C88.6786 50.1442 88.5957 50.4443 88.4701 50.7274C87.1694 54.1021 85.7515 57.4183 84.3688 60.6173L83.9587 61.5665L83.8063 61.2266L82.6345 58.3675L80.6307 53.4225C80.0852 52.2496 79.6346 51.0348 79.2832 49.7899C79.2832 49.7079 79.3535 49.5907 79.998 49.4384L80.6893 49.2743C80.7807 49.2175 80.8557 49.138 80.907 49.0435C80.9584 48.949 80.9843 48.8428 80.9823 48.7353C80.9829 48.6339 80.9586 48.5339 80.9116 48.444C80.8647 48.3541 80.7964 48.2771 80.7128 48.2197L76.9982 48.3017L73.6351 48.2197C73.5473 48.2375 73.4664 48.28 73.4021 48.3423C73.3377 48.4046 73.2925 48.4841 73.2719 48.5713C73.2429 48.6913 73.2427 48.8164 73.2712 48.9366C73.2997 49.0567 73.3561 49.1684 73.4359 49.2626L74.1507 49.4032C75.1936 49.6142 75.4163 49.9657 76.1779 51.7468L81.0409 63.4648C81.5273 64.6482 81.9498 65.8569 82.3064 67.0856C82.4907 67.195 82.7015 67.2517 82.9158 67.2497C83.0262 67.2568 83.1371 67.2419 83.2417 67.2056C83.3463 67.1694 83.4427 67.1127 83.5251 67.0387C84.0172 65.5857 85.3062 62.3516 86.4311 59.8205L87.9779 56.3754L88.3646 55.5083C89.3841 53.1647 90.1223 51.5711 90.8137 50.3875C90.9792 50.0942 91.2121 49.8444 91.4934 49.659C91.7746 49.4736 92.0959 49.3578 92.4307 49.3212L93.1221 49.1806H93.1924C93.3143 48.972 93.352 48.7247 93.2979 48.4892L93.0401 48.0791L93.0518 48.1611Z" fill="white"/>
<path d="M113.394 48.1611C113.078 48.1611 111.613 48.2432 109.668 48.2432H104.36L100.774 48.1611C100.703 48.2078 100.642 48.2699 100.598 48.3429C100.553 48.4159 100.525 48.4979 100.516 48.583C100.492 48.6939 100.493 48.8092 100.522 48.9192C100.55 49.0293 100.605 49.1309 100.681 49.2157L101.184 49.2743C102.356 49.4618 102.602 49.4853 102.602 52.3444V62.6797C102.602 65.5389 102.38 65.5623 101.184 65.6912L100.095 65.8084C100.02 65.8959 99.9657 65.9997 99.9372 66.1114C99.9088 66.2232 99.9065 66.3401 99.9306 66.4529C99.9394 66.5379 99.9671 66.62 100.012 66.6929C100.056 66.7659 100.117 66.828 100.188 66.8747L104.395 66.7927H107.559C110.852 66.7927 113.219 66.7927 114.426 66.8747H114.519V66.7927C115.073 65.4857 115.467 64.1164 115.691 62.7148C115.633 62.6189 115.554 62.5365 115.461 62.473C115.369 62.4095 115.263 62.3663 115.153 62.3464C115.042 62.3265 114.928 62.3302 114.819 62.3574C114.71 62.3845 114.608 62.4345 114.519 62.5039C113.559 64.742 112.961 65.4686 109.563 65.41C107.219 65.41 106.821 65.1873 106.539 64.8592C106.135 64.0017 105.984 63.046 106.106 62.1055V58.5901C106.106 57.9925 106.106 57.9925 106.61 57.9925H107.946C110.383 57.9925 110.699 57.9925 110.875 59.0823L111.074 60.2541C111.289 60.3833 111.543 60.4292 111.789 60.383L112.27 60.1369V59.3283L112.211 57.2191L112.246 55.0747V54.4654C112.196 54.3991 112.133 54.3441 112.06 54.3037C111.987 54.2634 111.907 54.2386 111.824 54.231C111.701 54.2108 111.575 54.216 111.455 54.2463C111.334 54.2765 111.22 54.3311 111.121 54.4068L110.922 55.4028C110.746 56.4574 110.43 56.4926 107.993 56.4926H106.633C106.129 56.4926 106.129 56.4926 106.129 55.9067V51.2195C106.129 49.7431 106.129 49.7431 107.161 49.7431H108.977C109.711 49.7182 110.444 49.7971 111.156 49.9774C111.953 50.1766 112.328 50.7625 112.797 52.403C112.905 52.4673 113.026 52.5087 113.15 52.5248C113.275 52.5409 113.402 52.5314 113.523 52.4968C113.605 52.4871 113.683 52.4588 113.752 52.4141C113.822 52.3694 113.879 52.3095 113.922 52.239L113.687 50.1766L113.453 48.1494L113.394 48.1611Z" fill="white"/>
<path d="M124.211 48.4066C124.141 48.4545 124.083 48.5172 124.04 48.5901C123.998 48.663 123.972 48.7444 123.965 48.8285C123.949 48.9357 123.958 49.0451 123.991 49.1485C124.023 49.2519 124.078 49.3468 124.152 49.4261L124.937 49.5081C126.109 49.637 126.109 49.7776 126.109 52.4962V62.6674C126.109 65.5265 125.886 65.55 124.679 65.7023L124.035 65.7961C123.955 65.8668 123.894 65.9563 123.857 66.0565C123.82 66.1567 123.809 66.2645 123.824 66.3702C123.827 66.472 123.855 66.5715 123.906 66.6595C123.957 66.7475 124.03 66.8213 124.117 66.8741L127.902 66.7921L131.628 66.8741C131.703 66.8301 131.767 66.7689 131.814 66.6956C131.86 66.6222 131.889 66.5389 131.898 66.4523C131.916 66.3393 131.911 66.2238 131.883 66.1129C131.855 66.002 131.804 65.8981 131.734 65.8078L131.077 65.714C129.906 65.5617 129.659 65.5383 129.659 62.6791V59.1637C129.659 58.7184 129.964 58.7184 130.679 58.7184C131.072 58.6749 131.469 58.7457 131.822 58.9224C132.175 59.0991 132.47 59.3742 132.671 59.7144L133.608 61.3315L134.757 63.5111C136.573 66.2648 139.631 69.2997 142.209 69.2997C142.854 69.3241 143.5 69.269 144.131 69.1357C144.199 69.0154 144.227 68.8765 144.21 68.7394C144.193 68.6022 144.133 68.4741 144.037 68.374C143.359 68.2919 142.722 68.0059 142.209 67.5538C139.523 64.7743 137.164 61.6958 135.179 58.3786L135.085 58.2145C135.029 58.1496 135 58.0659 135.003 57.9802C135.972 57.666 136.822 57.0612 137.436 56.2479C138.05 55.4346 138.399 54.4521 138.436 53.4336C138.49 52.5476 138.281 51.6655 137.835 50.8982C137.388 50.1309 136.725 49.5127 135.929 49.1214C134.245 48.3794 132.41 48.05 130.573 48.1605C128.171 48.1605 125.828 48.2426 124.211 48.4066ZM129.636 56.6092V50.7854C129.636 49.6136 129.636 49.6136 130.948 49.6136C131.456 49.6121 131.959 49.7157 132.425 49.918C132.89 50.1202 133.309 50.4167 133.655 50.7887C134 51.1607 134.265 51.6003 134.433 52.0797C134.6 52.5591 134.667 53.0679 134.628 53.5742C134.628 56.1756 133.456 57.3943 130.808 57.3943C129.589 57.4177 129.589 57.4177 129.589 56.574L129.636 56.6092Z" fill="white"/>
<path d="M149.205 53.0358C149.205 55.2036 150.54 57.055 153.2 58.5432L154.372 59.2111C156.27 60.2775 157.126 61.4727 157.126 63.1015C157.129 63.5012 157.046 63.897 156.884 64.2624C156.722 64.6278 156.484 64.9545 156.186 65.2206C155.888 65.4867 155.536 65.6862 155.155 65.8058C154.773 65.9253 154.371 65.9621 153.974 65.9138C151.056 65.9138 149.65 62.3984 149.404 61.625C149.318 61.5554 149.218 61.5057 149.11 61.4794C149.003 61.453 148.891 61.4508 148.783 61.4727C148.686 61.482 148.592 61.5132 148.509 61.564C148.426 61.6147 148.355 61.6837 148.302 61.7657C148.205 63.262 148.504 64.7576 149.169 66.1013C150.584 66.9417 152.213 67.3491 153.857 67.2731C157.876 67.2731 160.465 65.0818 160.465 61.6953C160.413 60.4878 160.02 59.3198 159.332 58.3264C158.643 57.3331 157.688 56.555 156.575 56.0824L154.853 55.1684C153.2 54.2896 152.298 53.1295 152.298 51.9109C152.291 51.5358 152.364 51.1636 152.511 50.8186C152.659 50.4736 152.877 50.1637 153.153 49.9092C153.428 49.6547 153.755 49.4613 154.11 49.3418C154.466 49.2223 154.843 49.1793 155.216 49.2157C156.092 49.25 156.93 49.5859 157.588 50.1666C158.246 50.7473 158.683 51.5373 158.825 52.403C158.927 52.4755 159.044 52.5255 159.167 52.5497C159.291 52.574 159.417 52.5719 159.54 52.5436C159.624 52.5335 159.705 52.5038 159.777 52.4571C159.848 52.4103 159.907 52.3477 159.95 52.2741C159.967 50.9762 159.765 49.6848 159.352 48.4541V48.3838L158.345 48.1728C157.394 47.9348 156.419 47.8051 155.438 47.7861C151.161 47.7979 149.205 50.3875 149.205 53.0358Z" fill="white"/>
<path d="M177.386 48.1611L173.707 48.2432L169.91 48.1611C169.838 48.2078 169.778 48.2699 169.733 48.3429C169.689 48.4159 169.661 48.4979 169.652 48.583C169.63 48.694 169.633 48.8086 169.662 48.9182C169.69 49.0278 169.743 49.1295 169.816 49.2158L170.484 49.2978C171.656 49.4501 171.902 49.4853 171.902 52.3444V62.6797C171.902 65.5389 171.691 65.5623 170.484 65.7146L169.816 65.8084C169.743 65.8972 169.691 66.001 169.663 66.1124C169.634 66.2238 169.631 66.34 169.652 66.4529C169.661 66.5379 169.689 66.62 169.733 66.693C169.778 66.7659 169.838 66.828 169.91 66.8747L173.707 66.7927L177.433 66.8747C177.508 66.8316 177.571 66.7704 177.616 66.6967C177.661 66.623 177.687 66.5391 177.691 66.4529C177.715 66.3401 177.713 66.2232 177.684 66.1114C177.656 65.9997 177.602 65.896 177.527 65.8084L176.859 65.7146C175.687 65.5623 175.441 65.5389 175.441 62.6797V52.403C175.441 49.5439 175.664 49.5087 176.859 49.3564L177.527 49.2743C177.602 49.1895 177.657 49.0879 177.685 48.9778C177.714 48.8678 177.716 48.7525 177.691 48.6416C177.687 48.5553 177.661 48.4714 177.616 48.3977C177.571 48.324 177.508 48.2628 177.433 48.2197H177.351L177.386 48.1611Z" fill="white"/>
<path d="M203.892 47.6925C203.599 48.2315 203.306 48.3252 201.912 48.3252H190.581C188.636 48.3252 188.425 48.3252 188.319 47.7276C188.277 47.6512 188.214 47.5885 188.137 47.547C188.06 47.5054 187.973 47.4868 187.886 47.4933C187.802 47.4858 187.717 47.4989 187.64 47.5316C187.562 47.5643 187.494 47.6155 187.44 47.6807C187.218 48.7236 186.796 50.4462 186.339 51.9109V52.0164C186.387 52.1076 186.455 52.1867 186.539 52.2476C186.622 52.3085 186.718 52.3496 186.819 52.3679C186.931 52.4021 187.048 52.4114 187.164 52.3952C187.279 52.379 187.39 52.3377 187.487 52.2742C188.542 50.0009 189.268 49.7548 191.717 49.7548H193.276C193.862 49.7548 193.862 49.7548 193.862 50.8212V62.7383C193.862 65.5975 193.651 65.6209 192.456 65.7147L191.284 65.867C191.207 65.9371 191.149 66.0252 191.114 66.1233C191.079 66.2214 191.069 66.3266 191.085 66.4295C191.084 66.5309 191.108 66.6309 191.155 66.7208C191.202 66.8107 191.271 66.8877 191.354 66.9451L195.702 66.863L199.815 66.9451C199.89 66.901 199.953 66.8399 200 66.7665C200.047 66.6932 200.076 66.6098 200.084 66.5232C200.103 66.4095 200.097 66.2929 200.067 66.1817C200.037 66.0704 199.982 65.967 199.908 65.8787L198.854 65.7615C197.682 65.6327 197.436 65.6092 197.436 62.75V50.8915C197.436 49.8251 197.436 49.8251 198.033 49.8251H199.615C202.58 49.8251 202.978 50.3407 203.318 52.3914C203.412 52.4584 203.519 52.5055 203.632 52.5297C203.745 52.5539 203.861 52.5547 203.974 52.532C204.062 52.5212 204.147 52.4928 204.223 52.4485C204.3 52.4042 204.367 52.3449 204.42 52.2742C204.392 50.8104 204.53 49.3481 204.83 47.9151V47.8448C204.771 47.7723 204.696 47.7152 204.61 47.6785C204.524 47.6417 204.431 47.6264 204.338 47.6339L203.892 47.6925Z" fill="white"/>
<path d="M219.126 48.1611C218.505 48.1611 216.782 48.2432 215.61 48.2432L212.095 48.1611C212.008 48.1846 211.93 48.2324 211.87 48.2988C211.81 48.3653 211.77 48.4476 211.755 48.5361C211.719 48.6518 211.71 48.7742 211.728 48.894C211.746 49.0138 211.791 49.1278 211.86 49.2275L212.646 49.4032C213.817 49.6493 214.017 49.9305 214.614 51.1023L217.954 57.723C218.606 58.722 218.911 59.9081 218.821 61.0978V62.7383C218.821 65.5975 218.61 65.6209 217.415 65.7498L216.466 65.867C216.391 65.9545 216.337 66.0582 216.308 66.17C216.28 66.2818 216.278 66.3986 216.302 66.5114C216.308 66.5972 216.334 66.6803 216.379 66.7537C216.424 66.8271 216.486 66.8886 216.559 66.9333L220.626 66.8513L224.856 66.9333C224.927 66.8866 224.988 66.8245 225.032 66.7515C225.077 66.6786 225.105 66.5965 225.113 66.5114C225.138 66.3986 225.135 66.2818 225.107 66.17C225.078 66.0582 225.025 65.9545 224.949 65.867L223.778 65.7498C222.5 65.6209 222.301 65.5975 222.301 62.7383V61.0743C222.194 59.7161 222.549 58.3615 223.309 57.2308L223.649 56.6332L225.992 52.5671C227.434 50.118 227.738 49.6493 228.91 49.4384L229.766 49.2626C229.84 49.1743 229.894 49.071 229.924 48.9597C229.955 48.8484 229.96 48.7319 229.941 48.6181C229.929 48.5341 229.899 48.4537 229.853 48.3828C229.806 48.3119 229.744 48.2522 229.672 48.208L226.988 48.29L224.035 48.208C223.956 48.2526 223.889 48.315 223.838 48.3903C223.787 48.4655 223.754 48.5515 223.743 48.6416C223.737 48.6883 223.737 48.7355 223.743 48.7822C223.739 48.9607 223.807 49.1333 223.93 49.2626L224.809 49.4735C225.289 49.5321 225.324 49.6259 225.324 49.7313C225.173 50.3619 224.928 50.9662 224.598 51.5242L221.469 57.4183C220.626 55.8247 219.829 54.1256 218.985 52.3093L218.387 51.0203C218.163 50.5884 218.001 50.1268 217.907 49.6493C217.907 49.5673 217.907 49.497 218.352 49.4384L219.231 49.2978C219.298 49.2351 219.35 49.1586 219.385 49.0736C219.419 48.9886 219.435 48.8972 219.43 48.8056C219.436 48.7707 219.436 48.7351 219.43 48.7002C219.427 48.6059 219.401 48.5138 219.354 48.4321C219.307 48.3503 219.241 48.2814 219.161 48.2314L219.126 48.1611Z" fill="white"/>
<path d="M14.8935 16.4637L10.5462 13.8858C7.58152 12.0344 6.05818 9.96028 6.05818 7.69871C6.05818 6.03476 6.66752 2.15612 12.3156 2.15612C17.2488 2.15612 18.7487 5.19107 19.4987 7.85104C19.5901 7.95381 19.7049 8.03303 19.8334 8.08198C19.9619 8.13094 20.1003 8.14819 20.2369 8.13228C20.5818 8.12363 20.9098 7.98068 21.1509 7.73387C21.1536 5.87475 20.9133 4.02326 20.4361 2.22643C20.2838 1.64053 20.1432 0.386708 19.2643 0.351555C18.9396 0.35945 18.6185 0.42286 18.3152 0.539042C17.9133 0.682164 17.4875 0.74584 17.0613 0.726529C16.6512 0.726529 16.2411 0.574196 15.8895 0.515606C14.9754 0.357279 14.0514 0.263305 13.1241 0.234375C6.44487 0.234375 1.94518 3.85522 1.94518 9.24548C1.94518 13.5928 5.1559 16.5223 7.80416 18.2214L12.9366 21.4087C16.7567 23.7523 17.284 26.1896 17.284 28.4395C17.284 31.2987 15.2568 34.193 10.7102 34.193C5.08559 34.193 2.64826 30.08 1.58192 26.6466C1.51345 26.5466 1.42028 26.466 1.31146 26.4126C1.20264 26.3593 1.08187 26.3349 0.960871 26.342C0.778995 26.3378 0.5983 26.3722 0.430671 26.4429C0.263041 26.5136 0.112273 26.619 -0.0117188 26.7521C0.0411321 27.8051 0.158532 28.8539 0.33982 29.8925C0.500689 30.9573 0.731644 32.0103 1.03118 33.0446C1.2598 33.7439 1.58732 34.4068 2.00377 35.0133C2.37874 35.5289 2.88262 35.5289 3.48023 35.5054C4.07121 35.4635 4.66507 35.4911 5.24964 35.5874C6.82369 35.9603 8.43641 36.1452 10.054 36.1382C17.0262 36.1382 21.772 32.2478 21.772 26.4709C21.7134 22.4399 19.487 19.1706 14.8935 16.4637Z" fill="white"/>
<path d="M79.3659 0.2347C78.7111 1.11397 77.8097 1.77878 76.7762 2.14473H76.6356V2.28534C76.7762 3.05873 76.4833 4.00788 75.7685 5.80073L70.4954 19.8271L66.98 28.7914L65.9723 31.299C65.7968 31.9588 65.4185 32.5468 64.8907 32.98C64.363 33.4131 63.7125 33.6695 63.0311 33.7129L61.2851 33.8652C61.1922 33.9622 61.1228 34.0792 61.0822 34.2071C61.0416 34.3351 61.0308 34.4707 61.0507 34.6035C61.0505 34.7552 61.0816 34.9053 61.1421 35.0444C61.2026 35.1836 61.2912 35.3087 61.4023 35.412H62.5741L66.3941 35.3065H68.105L71.7727 35.4237C71.9029 35.3569 72.0128 35.2565 72.0911 35.1328C72.1694 35.0092 72.2132 34.8669 72.218 34.7206C72.2472 34.5628 72.2333 34.3999 72.1776 34.2494C72.1219 34.0988 72.0265 33.966 71.9016 33.8652L70.1673 33.7129C68.9135 33.6074 68.8197 33.3028 68.8197 32.8458C69.0521 31.4004 69.4451 29.9855 69.9915 28.6273L71.7844 23.2253C72.1125 22.241 72.3351 22.0535 73.589 22.0535H81.358C82.8461 22.0535 82.975 22.1941 83.3031 23.2253L85.5764 30.2561C85.9126 31.1137 86.1332 32.0121 86.2326 32.9278C86.2326 33.3145 85.6116 33.6074 84.5804 33.7012L83.0453 33.8535C82.9386 33.9575 82.856 34.0836 82.8033 34.223C82.7506 34.3623 82.729 34.5115 82.7402 34.6601C82.7514 34.8087 82.795 34.953 82.868 35.0829C82.9409 35.2128 83.0415 35.3251 83.1625 35.412H84.2171L89.1035 35.2948C91.2714 35.2948 93.0759 35.2948 95.314 35.4472H95.3844C95.4874 35.3311 95.5664 35.1957 95.6167 35.0488C95.6669 34.902 95.6876 34.7466 95.6773 34.5917C95.6828 34.4626 95.6582 34.3339 95.6053 34.2159C95.5524 34.0979 95.4727 33.9939 95.3726 33.9121L93.943 33.7598C91.7869 33.5137 91.1542 32.7052 89.7129 28.4164L82.3423 6.85534C81.6626 4.86329 80.9478 2.80093 80.3736 0.820598C80.3103 0.631321 80.1837 0.469676 80.015 0.362939C79.8464 0.256202 79.6461 0.210909 79.4479 0.2347H79.3659ZM76.6122 9.7614C77.1043 8.42555 77.5379 7.41781 77.784 6.94909C78.0886 7.61701 78.4988 8.8474 78.8738 9.9606L81.6509 18.3389C81.8236 18.7037 81.8887 19.1103 81.8384 19.5107C81.7446 19.6982 81.2876 19.7099 80.6666 19.7099H74.3389C73.9444 19.7478 73.5463 19.708 73.1671 19.5928C73.0616 19.4873 73.2609 18.9717 73.3663 18.6905L76.6122 9.7614Z" fill="white"/>
</g>
<defs>
<clipPath id="clip0_8395_225">
<rect width="230" height="69.3" fill="white"/>
</clipPath>
</defs>
</svg>
