<svg width="169" height="51" viewBox="0 0 169 51" fill="none" xmlns="http://www.w3.org/2000/svg">
<path d="M39.271 0.672599C38.8318 0.784706 36.576 0.784706 34.191 0.784706H27.0962C25.6411 0.784706 24.3926 0.784706 22.6361 0.663976C22.5463 0.732152 22.4744 0.821111 22.4264 0.923237C22.3784 1.02536 22.3558 1.13761 22.3606 1.25038C22.3606 1.37974 22.3606 1.68156 22.5414 1.81092L23.1786 1.88853C25.3053 2.14724 25.3742 2.58704 25.3742 6.53665V20.1619C25.3742 24.1633 25.1675 24.5945 23.1441 24.7756L21.8526 24.8877C21.7808 24.9841 21.7298 25.0946 21.7032 25.2119C21.6765 25.3292 21.6746 25.4508 21.6976 25.5689C21.7025 25.6609 21.7293 25.7504 21.7757 25.8299C21.8222 25.9094 21.8869 25.9766 21.9646 26.026L27.1306 25.9139H30.523C33.8638 25.9139 37.2648 25.9139 40.6486 26.026H40.7261V25.957C41.45 24.2475 42.0261 22.4789 42.4481 20.6707C42.401 20.5722 42.3325 20.4854 42.2476 20.4167C42.1626 20.3481 42.0635 20.2993 41.9573 20.2741C41.8526 20.2415 41.7421 20.2323 41.6335 20.2472C41.5249 20.2621 41.4209 20.3007 41.3288 20.3603C40.4075 22.1971 39.4001 23.5855 38.6941 23.9736C37.988 24.3616 36.6965 24.5255 33.9154 24.5255C30.5403 24.5255 29.8342 24.0943 29.4296 23.6631C28.8527 23.0509 28.7407 21.7832 28.7407 19.8084V14.5566C28.7407 13.6942 28.7407 13.6942 29.8687 13.6942H32.0643C33.0269 13.6472 33.9918 13.7108 34.9401 13.884C35.2367 13.9698 35.4999 14.1449 35.694 14.3855C35.888 14.6262 36.0035 14.9207 36.0249 15.2292L36.3779 16.7384C36.4691 16.8182 36.576 16.8779 36.6917 16.9136C36.8074 16.9493 36.9294 16.9601 37.0495 16.9453C37.1476 16.9469 37.2446 16.924 37.3317 16.8789C37.4189 16.8338 37.4935 16.7677 37.5489 16.6866L37.4887 15.2551L37.3767 12.9354L37.4628 10.607L37.5231 9.08061C37.4677 8.99955 37.393 8.93349 37.3059 8.88835C37.2188 8.8432 37.1218 8.82038 37.0237 8.82191C36.9035 8.80717 36.7816 8.81799 36.6659 8.85365C36.5501 8.88931 36.4432 8.94902 36.3521 9.02887L36.0421 10.6156C35.8527 11.5728 35.5858 11.7194 35.1811 11.8488C34.1333 12.0382 33.0677 12.1106 32.004 12.0644H29.8084C28.6805 12.0644 28.6805 12.0644 28.6805 11.1244V3.58738C28.6805 2.19035 28.6805 2.19035 29.6965 2.19035H32.4173C33.6358 2.13918 34.8563 2.21432 36.0594 2.41457C37.8847 2.87162 38.255 4.06168 38.7457 5.70878L38.8146 5.933C38.8844 6.01288 38.9727 6.07433 39.0719 6.11192C39.171 6.14952 39.2778 6.16211 39.3829 6.14859C39.4942 6.1504 39.6045 6.12734 39.7058 6.0811C39.807 6.03485 39.8967 5.96658 39.9684 5.88126V5.34659C39.8778 3.80427 39.6909 2.26914 39.4087 0.750212V0.646729L39.271 0.672599Z" fill="white"/>
<path d="M72.0235 0.0948257H71.9804V0.172438C71.6817 1.99773 71.2413 3.7969 70.6631 5.55357V5.60531C70.7234 5.7079 70.8042 5.79687 70.9006 5.86663C70.9969 5.93638 71.1066 5.98541 71.2227 6.01062C71.3228 6.03787 71.4276 6.04351 71.53 6.02716C71.6324 6.0108 71.7302 5.97283 71.8168 5.91576C72.1401 4.97637 72.6868 4.1299 73.4097 3.44941C74.2707 2.64741 76.2166 2.53531 77.9817 2.53531H80.074C81.09 2.53531 81.09 2.53531 81.09 3.6305V20.1964C81.09 24.1978 80.8833 24.629 78.8599 24.8101L77.4909 24.9222C77.4 24.9923 77.3284 25.0846 77.2832 25.1903C77.238 25.296 77.2206 25.4115 77.2326 25.5258C77.2295 25.6325 77.2522 25.7384 77.2987 25.8345C77.3451 25.9306 77.414 26.014 77.4995 26.0777L82.7776 25.9656L87.7456 26.0777C87.8331 26.0055 87.9032 25.9146 87.9509 25.8116C87.9986 25.7086 88.0226 25.5962 88.0211 25.4827C88.035 25.381 88.0251 25.2774 87.9922 25.1801C87.9594 25.0829 87.9044 24.9946 87.8317 24.9222L86.5919 24.8101C84.4824 24.5945 84.3791 24.1461 84.3791 20.1964V3.58739C84.3791 3.06135 84.3791 2.72503 84.491 2.65604C84.6029 2.58705 84.8957 2.53531 85.352 2.53531H87.5562C89.6226 2.53531 90.0876 2.84576 90.9314 3.45803C91.3274 3.75986 91.6546 4.61359 91.7924 6.04511V6.03649C91.882 6.11834 91.9891 6.17872 92.1054 6.21308C92.2217 6.24744 92.3444 6.25488 92.464 6.23483C92.5662 6.23174 92.6661 6.20334 92.7548 6.15218C92.8434 6.10102 92.918 6.02869 92.972 5.94163C92.919 4.09966 93.1072 2.25867 93.5316 0.465641V0.422523C93.4111 0.189685 92.9031 0.172438 92.6706 0.258674C92.154 1.17278 91.8871 1.12103 89.8293 1.12103H75.8636C74.2105 1.12103 73.1256 1.24177 72.9189 0.163815V0.12932C72.7834 0.0521123 72.6313 0.00867638 72.4754 0.00267317C72.3196 -0.00333004 72.1646 0.0282754 72.0235 0.0948257Z" fill="white"/>
<path d="M97.8112 0.0948117V0.172424C97.4921 1.99922 97.0315 3.79836 96.4336 5.55355V5.6053C96.4939 5.70789 96.5748 5.79686 96.6711 5.86661C96.7674 5.93637 96.8771 5.9854 96.9933 6.0106C97.0947 6.03803 97.2008 6.04376 97.3047 6.02742C97.4085 6.01107 97.5078 5.97302 97.596 5.91575C97.9251 4.97507 98.4777 4.12864 99.2061 3.44939C100.067 2.6474 101.066 2.53529 102.831 2.53529H103.967C104.983 2.53529 104.983 2.53529 104.983 3.63049V20.1964C104.983 24.1978 104.777 24.629 102.745 24.8101L101.359 24.9222C101.267 24.9915 101.196 25.084 101.152 25.1901C101.108 25.2962 101.093 25.4121 101.109 25.5258C101.106 25.6316 101.128 25.7365 101.173 25.8323C101.218 25.9281 101.284 26.0121 101.367 26.0777L106.645 25.9656L111.613 26.0777C111.701 26.0055 111.771 25.9146 111.819 25.8116C111.866 25.7086 111.89 25.5962 111.889 25.4827C111.889 25.362 111.889 25.0515 111.699 24.9222L110.46 24.8101C108.367 24.5945 108.298 24.1547 108.298 20.1964V3.58737C108.298 3.06133 108.298 2.72501 108.41 2.65602C108.522 2.58703 108.815 2.53529 109.271 2.53529H111.949C114.016 2.53529 115.393 2.84574 116.254 3.45802C116.659 3.75984 116.977 4.59633 117.115 6.0451V6.03648C117.205 6.11779 117.312 6.17782 117.428 6.21215C117.545 6.24648 117.667 6.25423 117.787 6.23482C117.896 6.25919 118.009 6.25363 118.115 6.21871C118.221 6.1838 118.316 6.12084 118.389 6.03648C118.337 4.1945 118.525 2.35351 118.949 0.560486V0.405261C118.829 0.172424 118.329 0.155177 118.088 0.241413C117.563 1.15552 117.296 1.10377 115.247 1.10377H101.651C100.007 1.10377 98.9133 1.2245 98.7153 0.146553V0.129306C98.5779 0.0527 98.4245 0.00964881 98.2674 0.00365485C98.1103 -0.00233911 97.954 0.0288934 97.8112 0.0948117Z" fill="white"/>
<path d="M133.509 0.664062L128.859 0.784793L123.925 0.664062C123.745 0.750299 123.667 1.03488 123.65 1.25047C123.633 1.35229 123.642 1.45667 123.675 1.55442C123.708 1.65216 123.764 1.74028 123.839 1.811L124.812 1.88861C127.068 2.06971 127.163 2.58713 127.163 6.53674V20.162C127.163 24.1203 127.085 24.5601 125.002 24.7757L123.822 24.8878C123.75 24.9842 123.699 25.0946 123.673 25.212C123.646 25.3293 123.644 25.4509 123.667 25.569C123.676 25.6601 123.704 25.7481 123.75 25.827C123.796 25.906 123.859 25.9739 123.934 26.0261L128.868 25.914H132.312C136.453 25.914 139.88 25.9571 141.714 26.0261H141.792V25.9657C142.506 24.2641 143.062 22.5004 143.453 20.6967C143.445 20.6221 143.416 20.5514 143.368 20.4932C143.321 20.4351 143.258 20.3919 143.186 20.369C143.053 20.3022 142.905 20.2674 142.756 20.2674C142.606 20.2674 142.459 20.3022 142.325 20.369C141.637 22.0937 140.672 23.577 139.88 24.0513C139.295 24.379 138.502 24.5256 135.325 24.5256C132.518 24.5256 131.726 24.1289 131.296 23.6632C130.65 22.982 130.538 22.0161 130.538 19.6532V6.57123C130.538 2.62162 130.616 2.1042 132.734 1.92311L133.672 1.8455C133.862 1.71614 133.862 1.41432 133.853 1.28496C133.858 1.1722 133.835 1.05994 133.787 0.957818C133.739 0.855692 133.667 0.766733 133.577 0.698557L133.509 0.664062Z" fill="white"/>
<path d="M165.176 0.672599C164.737 0.784706 162.49 0.784706 160.105 0.784706H153.002C151.555 0.784706 150.307 0.784706 148.55 0.663976C148.369 0.750212 148.292 1.03479 148.283 1.25038C148.275 1.46597 148.283 1.68156 148.464 1.81092L149.093 1.88853C151.228 2.14724 151.297 2.58704 151.297 6.53665V20.1619C151.297 24.1633 151.09 24.5945 149.058 24.7756L147.775 24.8877C147.7 24.9825 147.648 25.0929 147.621 25.2107C147.594 25.3286 147.594 25.451 147.62 25.5689C147.626 25.6597 147.653 25.7479 147.697 25.8271C147.742 25.9062 147.804 25.9742 147.879 26.026L153.045 25.9139H156.489C159.821 25.9139 163.231 25.9139 166.614 26.026H166.692V25.957C167.412 24.2461 167.988 22.4778 168.414 20.6707C168.363 20.5747 168.293 20.49 168.208 20.422C168.123 20.3539 168.025 20.3038 167.921 20.2748C167.816 20.2457 167.707 20.2383 167.599 20.253C167.491 20.2677 167.388 20.3042 167.295 20.3603C166.373 22.1971 165.366 23.5855 164.66 23.9736C163.799 24.3961 162.662 24.5255 159.881 24.5255C156.506 24.5255 155.791 24.0943 155.387 23.6631C154.818 23.0509 154.707 21.7832 154.707 19.8084V14.5566C154.707 13.6942 154.707 13.6942 155.834 13.6942H158.03C158.993 13.6475 159.958 13.7112 160.906 13.884C161.174 13.9866 161.407 14.1637 161.577 14.3943C161.748 14.625 161.85 14.8997 161.87 15.1861L162.215 16.6953C162.306 16.7751 162.413 16.8348 162.528 16.8705C162.644 16.9061 162.766 16.917 162.886 16.9022C162.984 16.9038 163.081 16.8809 163.168 16.8358C163.255 16.7906 163.33 16.7246 163.386 16.6435L163.325 15.212L163.282 12.9354L163.377 10.607L163.437 9.08061C163.38 9.00113 163.305 8.93626 163.218 8.8913C163.132 8.84634 163.036 8.82256 162.938 8.82191C162.818 8.80717 162.696 8.81799 162.58 8.85365C162.464 8.88931 162.357 8.94902 162.266 9.02887L161.965 10.6156C161.767 11.5728 161.509 11.7194 161.104 11.8488C160.059 12.0389 158.996 12.1112 157.935 12.0644H155.74C154.612 12.0644 154.612 12.0644 154.612 11.1244V3.58738C154.612 2.19035 154.612 2.19035 155.628 2.19035H158.349C159.564 2.13872 160.782 2.21386 161.982 2.41457C163.799 2.87162 164.178 4.06168 164.703 5.70878L164.772 5.933C164.84 6.01278 164.927 6.0743 165.024 6.11195C165.122 6.1496 165.228 6.16219 165.331 6.14859C165.444 6.14931 165.555 6.12581 165.658 6.07968C165.76 6.03355 165.851 5.96588 165.926 5.88126L165.874 5.33797C165.792 3.7977 165.605 2.26484 165.314 0.750212V0.646729L165.176 0.672599Z" fill="white"/>
<path d="M14.6971 35.4429L12.5359 35.5032L10.2801 35.4429C10.2064 35.4555 10.1389 35.4918 10.0876 35.5462C10.0364 35.6007 10.0042 35.6703 9.99592 35.7447C9.97905 35.8312 9.9853 35.9206 10.014 36.0039C10.0428 36.0872 10.0929 36.1614 10.1595 36.219L10.5986 36.288C10.781 36.289 10.9607 36.3323 11.1236 36.4146C11.2864 36.4969 11.428 36.6159 11.5371 36.7623C11.9074 37.3659 11.9074 39.5563 11.9074 40.7378V43.3248C11.9074 46.6536 10.6761 48.3438 8.23945 48.3438C5.80278 48.3438 4.66624 46.6191 4.66624 43.2645V38.5646C4.66624 36.4605 4.804 36.4432 5.70806 36.3052L6.22467 36.219C6.27785 36.1568 6.31631 36.0834 6.33718 36.0043C6.35805 35.9251 6.3608 35.8423 6.34521 35.7619C6.33775 35.6997 6.31598 35.6401 6.28162 35.5877C6.24726 35.5354 6.20124 35.4917 6.14718 35.4601L3.39193 35.5205L0.731398 35.4429C0.677339 35.4744 0.631321 35.5181 0.59696 35.5705C0.562599 35.6228 0.54083 35.6825 0.533364 35.7447C0.513994 35.8259 0.51243 35.9104 0.528781 35.9923C0.545131 36.0741 0.579007 36.1515 0.628076 36.219L1.01553 36.288C1.87655 36.426 2.06597 36.4432 2.06597 38.5474V43.7215C2.06597 45.8343 2.5137 47.2917 3.44359 48.1799C4.37349 49.0682 5.75972 49.5252 7.74867 49.5252C8.5014 49.5585 9.25292 49.4364 9.95651 49.1664C10.6601 48.8964 11.3007 48.4843 11.8385 47.9557C12.777 46.9381 13.2161 45.4118 13.2161 43.1524V40.755C13.1296 39.4206 13.2222 38.0806 13.4916 36.7709C13.6036 36.5122 13.8877 36.4346 14.3096 36.3397L14.7918 36.2362C14.8446 36.1856 14.8853 36.1235 14.9106 36.0548C14.936 35.9861 14.9454 35.9125 14.9381 35.8396C14.9352 35.768 14.9157 35.6981 14.8814 35.6353C14.8471 35.5725 14.7987 35.5184 14.7401 35.4774L14.6971 35.4429Z" fill="white"/>
<path d="M24.272 35.4429L22.8771 35.5032H22.6102C22.0592 35.5032 21.1293 35.5032 20.4749 35.4429C20.4006 35.4572 20.3328 35.4952 20.2817 35.5511C20.2305 35.607 20.1986 35.6779 20.1908 35.7533C20.1687 35.8375 20.1682 35.9258 20.1893 36.0102C20.2103 36.0947 20.2523 36.1724 20.3113 36.2362L20.6471 36.3052C21.0106 36.3765 21.3597 36.5076 21.6803 36.6933C22.3175 37.2366 22.3175 37.5039 22.3089 38.9872V43.9802C22.3855 45.3135 22.3017 46.6511 22.0592 47.9643C21.9386 48.2403 21.6201 48.3093 21.2498 48.3696L20.759 48.4818C20.7055 48.5337 20.6645 48.5973 20.6391 48.6675C20.6138 48.7377 20.6047 48.8128 20.6127 48.8871C20.6156 48.9598 20.635 49.031 20.6693 49.0952C20.7036 49.1594 20.7519 49.215 20.8107 49.2579L22.9632 49.1975L25.288 49.2579C25.3596 49.2396 25.4241 49.2002 25.4732 49.1449C25.5223 49.0896 25.5538 49.0208 25.5635 48.9474C25.5686 48.9131 25.5686 48.8783 25.5635 48.8439C25.5656 48.7705 25.5512 48.6975 25.5214 48.6303C25.4916 48.5632 25.4471 48.5036 25.3913 48.4559L24.9694 48.4041C24.427 48.3179 24.1514 48.1886 24.0137 47.9471C23.6607 47.3348 23.6607 45.153 23.6607 43.9802V39.9961C23.6607 39.4442 23.6607 39.1338 23.6607 38.9096C23.9104 39.1596 24.2806 39.5822 24.8489 40.2203L25.8304 41.3414L30.6091 46.8002C32.0556 48.4559 32.6583 49.163 32.9855 49.5942V49.6373H33.0371C33.1876 49.6583 33.3409 49.639 33.4816 49.5815C33.6222 49.5239 33.7451 49.4301 33.8379 49.3096V49.2665C33.8379 49.0509 33.7776 48.2575 33.7776 45.6791V40.755C33.6928 39.4206 33.7855 38.0808 34.0531 36.7709C34.165 36.5208 34.4147 36.4346 34.8453 36.3656L35.3877 36.219C35.4412 36.167 35.4822 36.1035 35.5076 36.0333C35.533 35.963 35.542 35.8879 35.5341 35.8137C35.5311 35.7409 35.5118 35.6698 35.4775 35.6055C35.4432 35.5413 35.3948 35.4857 35.336 35.4429L33.1663 35.5032L30.8243 35.4429C30.7523 35.4591 30.6868 35.4965 30.6362 35.5503C30.5855 35.604 30.5521 35.6717 30.5402 35.7447C30.5359 35.7791 30.5359 35.8138 30.5402 35.8482C30.5392 35.9227 30.554 35.9967 30.5837 36.0651C30.6134 36.1335 30.6572 36.1947 30.7124 36.2449L31.2118 36.3052C31.7456 36.3915 32.0039 36.5208 32.1503 36.7623C32.5205 37.3832 32.5205 39.4787 32.5205 40.7378V44.7219C32.5257 44.8167 32.5257 44.9117 32.5205 45.0064C32.2019 44.6874 31.3323 43.7129 30.6693 42.9713L29.705 41.9019L27.6644 39.6943C26.4418 38.4049 25.3488 36.9983 24.4011 35.4946V35.417L24.272 35.4429Z" fill="white"/>
<path d="M47.8381 35.4429L45.1259 35.5032L42.3448 35.4429C42.2898 35.4746 42.2436 35.5196 42.2105 35.5739C42.1774 35.6281 42.1585 35.6898 42.1554 35.7533C42.137 35.8349 42.1384 35.9198 42.1594 36.0008C42.1804 36.0818 42.2203 36.1566 42.2759 36.219L42.7581 36.2794C43.6191 36.3915 43.8085 36.4173 43.8085 38.5215V46.1275C43.8085 48.2317 43.6449 48.2489 42.7667 48.361L42.2759 48.43C42.2208 48.4945 42.1812 48.5708 42.1603 48.6531C42.1394 48.7353 42.1377 48.8213 42.1554 48.9043C42.1585 48.9678 42.1774 49.0295 42.2105 49.0838C42.2436 49.138 42.2898 49.1831 42.3448 49.2148L45.1259 49.1544L47.8639 49.2148C47.9191 49.1824 47.9658 49.1373 48.0002 49.0834C48.0346 49.0294 48.0558 48.9681 48.0619 48.9043C48.0755 48.8212 48.0718 48.7362 48.051 48.6546C48.0303 48.573 47.993 48.4965 47.9414 48.43L47.4506 48.361C46.5896 48.2489 46.4088 48.2317 46.4088 46.1275V38.5646C46.4088 36.4605 46.5638 36.4346 47.4506 36.3225L47.9414 36.2621C47.9932 36.1974 48.0308 36.1225 48.0515 36.0422C48.0723 35.962 48.0759 35.8782 48.0619 35.7964C48.0558 35.7327 48.0346 35.6713 48.0002 35.6174C47.9658 35.5634 47.9191 35.5184 47.8639 35.486H47.8122L47.8381 35.4429Z" fill="white"/>
<path d="M68.3732 35.4429L66.4015 35.5033L64.1801 35.4429C64.1306 35.4798 64.089 35.5263 64.058 35.5796C64.0269 35.633 64.0069 35.6921 63.9993 35.7534C63.9993 35.7534 63.9993 35.8137 63.9993 35.8482C63.9998 35.9802 64.0454 36.108 64.1284 36.2104L64.757 36.3657C65.0153 36.426 65.1444 36.4778 65.1875 36.564C65.1923 36.6012 65.1923 36.6389 65.1875 36.6761C65.1599 36.9023 65.099 37.1232 65.0067 37.3315C64.051 39.8151 63.0091 42.2556 61.9931 44.6098L61.6918 45.3083L61.5798 45.0583L60.7188 42.9541L59.2465 39.3149C58.8457 38.4518 58.5145 37.5578 58.2563 36.6416C58.2563 36.5813 58.308 36.495 58.7815 36.3829L59.2895 36.2622C59.3566 36.2204 59.4118 36.1618 59.4495 36.0923C59.4872 36.0228 59.5063 35.9446 59.5048 35.8655C59.5052 35.7909 59.4874 35.7173 59.4529 35.6511C59.4184 35.585 59.3682 35.5283 59.3068 35.4861L56.5773 35.5464L54.1062 35.4861C54.0417 35.4991 53.9823 35.5304 53.935 35.5763C53.8877 35.6221 53.8545 35.6806 53.8393 35.7448C53.818 35.8331 53.8179 35.9252 53.8388 36.0136C53.8598 36.102 53.9012 36.1842 53.9599 36.2536L54.4851 36.357C55.2514 36.5123 55.415 36.771 55.9746 38.0818L59.5478 46.7054C59.9053 47.5763 60.2157 48.4658 60.4777 49.3701C60.6132 49.4505 60.768 49.4923 60.9255 49.4908C61.0067 49.4961 61.0881 49.485 61.165 49.4584C61.2418 49.4317 61.3126 49.39 61.3732 49.3356C61.7348 48.2662 62.6819 45.8861 63.5085 44.0234L64.6451 41.4881L64.9292 40.8499C65.6783 39.1252 66.2207 37.9524 66.7287 37.0814C66.8503 36.8655 67.0215 36.6817 67.2281 36.5453C67.4348 36.4088 67.6709 36.3236 67.9169 36.2967L68.4249 36.1932H68.4766C68.5661 36.0397 68.5938 35.8577 68.5541 35.6844L68.3646 35.3826L68.3732 35.4429Z" fill="white"/>
<path d="M83.3202 35.4429C83.0877 35.4429 82.0115 35.5033 80.5822 35.5033H76.6818L74.0471 35.4429C73.9944 35.4773 73.9501 35.523 73.9173 35.5767C73.8845 35.6304 73.8642 35.6908 73.8577 35.7534C73.8393 35.835 73.8407 35.9199 73.8617 36.0008C73.8826 36.0818 73.9226 36.1566 73.9782 36.2191L74.3484 36.2622C75.2095 36.4002 75.3903 36.4174 75.3903 38.5216V46.1276C75.3903 48.2318 75.2267 48.249 74.3484 48.3439L73.5477 48.4301C73.4925 48.4945 73.453 48.5709 73.4321 48.6531C73.4112 48.7354 73.4095 48.8214 73.4272 48.9044C73.4337 48.967 73.454 49.0274 73.4868 49.0811C73.5196 49.1348 73.5639 49.1805 73.6166 49.2148L76.7076 49.1545H79.0324C81.4518 49.1545 83.1911 49.1545 84.0779 49.2148H84.1468V49.1545C84.5537 48.1926 84.8428 47.185 85.0078 46.1535C84.9647 46.0829 84.9071 46.0222 84.8389 45.9755C84.7707 45.9287 84.6934 45.897 84.6121 45.8823C84.5308 45.8677 84.4472 45.8704 84.3671 45.8904C84.2869 45.9104 84.2118 45.9471 84.1468 45.9982C83.4408 47.6453 83.0016 48.18 80.5047 48.1369C78.7827 48.1369 78.4899 47.973 78.2833 47.7316C77.9857 47.1005 77.8752 46.3972 77.9647 45.705V43.118C77.9647 42.6782 77.9647 42.6782 78.3349 42.6782H79.3165C81.1074 42.6782 81.3399 42.6782 81.469 43.4801L81.6154 44.3425C81.7729 44.4376 81.9599 44.4714 82.1406 44.4374L82.4936 44.2563V43.6612L82.4506 42.109L82.4764 40.5309V40.0824C82.4396 40.0337 82.393 39.9932 82.3396 39.9635C82.2862 39.9338 82.2273 39.9156 82.1665 39.91C82.0761 39.8951 81.9836 39.8989 81.8948 39.9212C81.806 39.9434 81.7226 39.9836 81.6499 40.0393L81.5035 40.7723C81.3743 41.5485 81.1419 41.5743 79.3509 41.5743H78.3522C77.9819 41.5743 77.9819 41.5743 77.9819 41.1432V37.6937C77.9819 36.6071 77.9819 36.6071 78.7396 36.6071H80.0742C80.6135 36.5889 81.1526 36.6469 81.6757 36.7796C82.2612 36.9262 82.5367 37.3574 82.8811 38.5647C82.9607 38.612 83.0491 38.6425 83.1409 38.6543C83.2327 38.6662 83.3259 38.6592 83.4149 38.6337C83.4749 38.6265 83.5325 38.6057 83.5833 38.5728C83.634 38.5399 83.6766 38.4959 83.7077 38.444L83.5355 36.9262L83.3633 35.4343L83.3202 35.4429Z" fill="white"/>
<path d="M91.2674 35.6242C91.2164 35.6595 91.1737 35.7056 91.1424 35.7592C91.1112 35.8129 91.0921 35.8728 91.0866 35.9347C91.0754 36.0136 91.0819 36.0941 91.1058 36.1702C91.1296 36.2463 91.1701 36.3161 91.2244 36.3745L91.8013 36.4348C92.6623 36.5297 92.6623 36.6332 92.6623 38.6338V46.1191C92.6623 48.2233 92.4987 48.2405 91.6119 48.3526L91.1383 48.4216C91.0795 48.4737 91.0346 48.5396 91.0076 48.6133C90.9805 48.6871 90.9722 48.7664 90.9833 48.8442C90.9854 48.9191 91.0062 48.9923 91.0438 49.057C91.0814 49.1218 91.1346 49.1761 91.1986 49.215L93.9796 49.1546L96.7177 49.215C96.7728 49.1826 96.8195 49.1376 96.8539 49.0836C96.8884 49.0297 96.9095 48.9683 96.9157 48.9046C96.9293 48.8214 96.9256 48.7364 96.9048 48.6548C96.8841 48.5732 96.8467 48.4968 96.7952 48.4303L96.313 48.3613C95.452 48.2492 95.2712 48.2319 95.2712 46.1278V43.5407C95.2712 43.213 95.495 43.213 96.0202 43.213C96.3088 43.1809 96.6005 43.2331 96.8601 43.3631C97.1198 43.4931 97.3364 43.6956 97.484 43.946L98.1728 45.136L99.0166 46.74C100.351 48.7666 102.598 51.0001 104.493 51.0001C104.966 51.018 105.441 50.9775 105.905 50.8794C105.955 50.7909 105.975 50.6886 105.963 50.5877C105.95 50.4868 105.906 50.3925 105.836 50.3188C105.337 50.2584 104.869 50.0479 104.493 49.7152C102.518 47.6697 100.785 45.4041 99.3265 42.9629L99.2577 42.8422C99.2166 42.7943 99.195 42.7327 99.1974 42.6697C99.9098 42.4384 100.534 41.9934 100.985 41.3949C101.436 40.7963 101.693 40.0733 101.72 39.3237C101.76 38.6717 101.606 38.0225 101.278 37.4579C100.95 36.8932 100.463 36.4382 99.8776 36.1502C98.6409 35.6042 97.2919 35.3618 95.9428 35.4431C94.1777 35.4431 92.4556 35.5035 91.2674 35.6242ZM95.2539 41.6607V37.3748C95.2539 36.5124 95.2539 36.5124 96.2183 36.5124C96.5914 36.5113 96.9607 36.5876 97.303 36.7364C97.6452 36.8853 97.953 37.1035 98.2069 37.3773C98.4609 37.651 98.6555 37.9745 98.7786 38.3273C98.9016 38.6801 98.9504 39.0546 98.9219 39.4272C98.9219 41.3417 98.0609 42.2385 96.115 42.2385C95.2195 42.2558 95.2195 42.2558 95.2195 41.6349L95.2539 41.6607Z" fill="white"/>
<path d="M109.633 39.0304C109.633 40.6257 110.615 41.9883 112.569 43.0835L113.43 43.575C114.825 44.3598 115.454 45.2394 115.454 46.438C115.456 46.7322 115.395 47.0235 115.276 47.2924C115.157 47.5613 114.982 47.8017 114.763 47.9976C114.544 48.1934 114.286 48.3402 114.005 48.4282C113.725 48.5162 113.429 48.5433 113.138 48.5077C110.994 48.5077 109.96 45.9206 109.78 45.3515C109.717 45.3003 109.643 45.2636 109.564 45.2443C109.485 45.2249 109.403 45.2232 109.323 45.2394C109.252 45.2462 109.183 45.2692 109.122 45.3065C109.061 45.3439 109.009 45.3946 108.97 45.455C108.899 46.5562 109.118 47.6568 109.607 48.6457C110.647 49.2642 111.844 49.564 113.052 49.508C116.005 49.508 117.908 47.8954 117.908 45.4032C117.869 44.5146 117.581 43.655 117.075 42.9239C116.569 42.1929 115.866 41.6203 115.049 41.2725L113.783 40.5999C112.569 39.9531 111.906 39.0994 111.906 38.2025C111.901 37.9265 111.955 37.6526 112.063 37.3987C112.171 37.1448 112.332 36.9167 112.534 36.7294C112.737 36.5421 112.977 36.3998 113.238 36.3118C113.499 36.2239 113.776 36.1923 114.05 36.2191C114.694 36.2443 115.31 36.4915 115.793 36.9189C116.277 37.3462 116.598 37.9276 116.702 38.5647C116.778 38.618 116.863 38.6548 116.954 38.6727C117.044 38.6905 117.138 38.689 117.227 38.6682C117.29 38.6607 117.349 38.6389 117.401 38.6045C117.454 38.5701 117.497 38.524 117.529 38.4698C117.541 37.5147 117.393 36.5643 117.09 35.6585V35.6068L116.349 35.4516C115.65 35.2764 114.934 35.181 114.214 35.167C111.071 35.1756 109.633 37.0814 109.633 39.0304Z" fill="white"/>
<path d="M130.34 35.4429L127.636 35.5032L124.847 35.4429C124.794 35.4772 124.75 35.5229 124.717 35.5766C124.684 35.6303 124.664 35.6907 124.657 35.7533C124.641 35.835 124.643 35.9194 124.664 36C124.685 36.0807 124.724 36.1555 124.778 36.219L125.268 36.2794C126.13 36.3915 126.31 36.4173 126.31 38.5215V46.1275C126.31 48.2317 126.155 48.2489 125.268 48.361L124.778 48.43C124.724 48.4954 124.686 48.5718 124.665 48.6538C124.644 48.7357 124.641 48.8212 124.657 48.9043C124.664 48.9669 124.684 49.0273 124.717 49.081C124.75 49.1347 124.794 49.1804 124.847 49.2148L127.636 49.1544L130.374 49.2148C130.429 49.1831 130.475 49.138 130.509 49.0838C130.542 49.0295 130.561 48.9678 130.564 48.9043C130.581 48.8213 130.58 48.7353 130.559 48.6531C130.538 48.5708 130.498 48.4945 130.443 48.43L129.952 48.361C129.091 48.2489 128.911 48.2317 128.911 46.1275V38.5646C128.911 36.4605 129.074 36.4346 129.952 36.3225L130.443 36.2621C130.499 36.1997 130.539 36.1249 130.56 36.0439C130.581 35.9629 130.582 35.8781 130.564 35.7964C130.561 35.7329 130.542 35.6712 130.509 35.617C130.475 35.5627 130.429 35.5177 130.374 35.486H130.314L130.34 35.4429Z" fill="white"/>
<path d="M149.816 35.0981C149.601 35.4947 149.385 35.5637 148.361 35.5637H140.035C138.606 35.5637 138.451 35.5637 138.373 35.1239C138.342 35.0677 138.295 35.0216 138.239 34.991C138.183 34.9604 138.119 34.9467 138.055 34.9515C137.993 34.9459 137.931 34.9556 137.874 34.9797C137.817 35.0037 137.766 35.0414 137.727 35.0894C137.564 35.8569 137.254 37.1246 136.918 38.2026V38.2802C136.953 38.3473 137.004 38.4055 137.065 38.4503C137.126 38.4951 137.196 38.5254 137.271 38.5389C137.353 38.564 137.439 38.5709 137.524 38.559C137.609 38.547 137.69 38.5166 137.762 38.4699C138.537 36.7969 139.071 36.6158 140.87 36.6158H142.015C142.446 36.6158 142.446 36.6158 142.446 37.4006V46.1708C142.446 48.2749 142.291 48.2922 141.412 48.3612L140.551 48.4733C140.495 48.5249 140.452 48.5897 140.426 48.6619C140.401 48.7341 140.394 48.8115 140.405 48.8872C140.405 48.9618 140.422 49.0354 140.457 49.1016C140.492 49.1677 140.542 49.2244 140.603 49.2666L143.797 49.2063L146.82 49.2666C146.875 49.2342 146.921 49.1892 146.956 49.1353C146.99 49.0813 147.012 49.0199 147.018 48.9562C147.032 48.8725 147.027 48.7867 147.005 48.7048C146.983 48.6229 146.943 48.5469 146.889 48.4819L146.114 48.3957C145.253 48.3008 145.072 48.2836 145.072 46.1794V37.4523C145.072 36.6676 145.072 36.6676 145.511 36.6676H146.673C148.852 36.6676 149.144 37.047 149.394 38.5561C149.463 38.6055 149.542 38.6401 149.624 38.6579C149.707 38.6757 149.793 38.6763 149.876 38.6596C149.941 38.6517 150.003 38.6308 150.059 38.5982C150.115 38.5656 150.164 38.522 150.203 38.4699C150.183 37.3926 150.284 36.3165 150.505 35.2619V35.2102C150.462 35.1568 150.406 35.1148 150.343 35.0877C150.28 35.0607 150.211 35.0494 150.143 35.0549L149.816 35.0981Z" fill="white"/>
<path d="M161.01 35.4429C160.553 35.4429 159.288 35.5032 158.427 35.5032L155.844 35.4429C155.78 35.4601 155.723 35.4953 155.679 35.5442C155.634 35.5931 155.605 35.6537 155.594 35.7188C155.567 35.804 155.561 35.894 155.574 35.9822C155.588 36.0704 155.621 36.1543 155.672 36.2276L156.248 36.357C157.109 36.5381 157.256 36.745 157.695 37.6074L160.149 42.4797C160.628 43.2149 160.852 44.0878 160.786 44.9633V46.1706C160.786 48.2748 160.631 48.292 159.753 48.3869L159.055 48.4731C159 48.5376 158.961 48.6139 158.94 48.6962C158.919 48.7784 158.917 48.8644 158.935 48.9474C158.939 49.0106 158.959 49.0717 158.992 49.1257C159.025 49.1797 159.07 49.225 159.124 49.2579L162.112 49.1975L165.22 49.2579C165.273 49.2235 165.317 49.1778 165.35 49.1241C165.383 49.0704 165.403 49.01 165.41 48.9474C165.427 48.8644 165.426 48.7784 165.405 48.6962C165.384 48.6139 165.344 48.5376 165.289 48.4731L164.428 48.3869C163.49 48.292 163.343 48.2748 163.343 46.1706V44.9461C163.264 43.9466 163.525 42.9496 164.084 42.1175L164.333 41.6777L166.055 38.6853C167.114 36.883 167.338 36.5381 168.199 36.3828L168.828 36.2535C168.882 36.1885 168.922 36.1124 168.944 36.0306C168.967 35.9487 168.971 35.8629 168.957 35.7792C168.948 35.7174 168.926 35.6582 168.892 35.606C168.858 35.5538 168.812 35.5099 168.759 35.4774L166.787 35.5377L164.617 35.4774C164.559 35.5102 164.51 35.5561 164.472 35.6115C164.435 35.6669 164.411 35.7302 164.402 35.7964C164.398 35.8308 164.398 35.8656 164.402 35.8999C164.4 36.0313 164.449 36.1583 164.54 36.2535L165.186 36.4087C165.539 36.4518 165.565 36.5208 165.565 36.5984C165.453 37.0625 165.273 37.5072 165.031 37.9178L162.732 42.2555C162.112 41.0827 161.526 39.8323 160.907 38.4956L160.467 37.547C160.303 37.2292 160.184 36.8895 160.114 36.5381C160.114 36.4777 160.114 36.426 160.442 36.3828L161.087 36.2794C161.136 36.2332 161.175 36.1769 161.2 36.1144C161.226 36.0518 161.237 35.9846 161.234 35.9172C161.238 35.8915 161.238 35.8653 161.234 35.8396C161.231 35.7702 161.212 35.7024 161.178 35.6423C161.143 35.5821 161.094 35.5314 161.036 35.4946L161.01 35.4429Z" fill="white"/>
<path d="M10.9433 12.1161L7.74896 10.2189C5.57059 8.85633 4.45127 7.32996 4.45127 5.6656C4.45127 4.44105 4.899 1.58663 9.04909 1.58663C12.674 1.58663 13.7761 3.82015 14.3271 5.77771C14.3943 5.85333 14.4786 5.91163 14.573 5.94766C14.6675 5.98369 14.7692 5.99639 14.8695 5.98467C15.123 5.97831 15.364 5.87311 15.5411 5.69147C15.5431 4.32329 15.3665 2.96072 15.0159 1.63838C14.904 1.2072 14.8007 0.28447 14.1549 0.258599C13.9163 0.264409 13.6804 0.311076 13.4575 0.396577C13.1622 0.501905 12.8493 0.548766 12.5362 0.534555C12.2348 0.534555 11.9335 0.422448 11.6752 0.37933C11.0035 0.262812 10.3245 0.193654 9.64319 0.172363C4.7354 0.172363 1.42911 2.83706 1.42911 6.80392C1.42911 10.0033 3.78829 12.1592 5.73418 13.4096L9.50543 15.7552C12.3123 17.4799 12.6998 19.2736 12.6998 20.9294C12.6998 23.0335 11.2102 25.1636 7.8695 25.1636C3.73663 25.1636 1.94571 22.1367 1.16219 19.61C1.11187 19.5364 1.04342 19.477 0.963459 19.4378C0.883502 19.3985 0.794762 19.3806 0.705853 19.3858C0.572213 19.3827 0.439442 19.408 0.316271 19.46C0.1931 19.5121 0.0823181 19.5896 -0.00878906 19.6876C0.0300448 20.4625 0.116308 21.2343 0.249515 21.9987C0.367719 22.7823 0.537421 23.5572 0.757514 24.3185C0.925501 24.8331 1.16616 25.3209 1.47216 25.7672C1.74768 26.1467 2.11792 26.1467 2.55704 26.1294C2.99128 26.0986 3.42763 26.1188 3.85717 26.1898C5.01375 26.4642 6.19875 26.6002 7.38733 26.5951C12.5104 26.5951 15.9975 23.7321 15.9975 19.4806C15.9544 16.5141 14.3185 14.1081 10.9433 12.1161Z" fill="white"/>
<path d="M58.3164 0.17252C57.8352 0.819598 57.1729 1.30886 56.4135 1.57817H56.3102V1.68165C56.4135 2.25081 56.1983 2.94932 55.6731 4.26873L51.7985 14.5912L49.2154 21.1882L48.475 23.0337C48.3461 23.5193 48.0681 23.952 47.6803 24.2708C47.2925 24.5896 46.8145 24.7782 46.3138 24.8102L45.0309 24.9223C44.9627 24.9936 44.9117 25.0797 44.8818 25.1739C44.852 25.2681 44.8441 25.3678 44.8587 25.4656C44.8585 25.5772 44.8814 25.6877 44.9258 25.7901C44.9703 25.8925 45.0354 25.9846 45.117 26.0606H45.978L48.7849 25.983H50.042L52.737 26.0692C52.8327 26.02 52.9134 25.9461 52.971 25.8551C53.0285 25.7642 53.0607 25.6594 53.0642 25.5518C53.0857 25.4356 53.0754 25.3158 53.0345 25.205C52.9936 25.0941 52.9235 24.9965 52.8317 24.9223L51.5574 24.8102C50.6361 24.7325 50.5672 24.5083 50.5672 24.172C50.738 23.1083 51.0268 22.067 51.4283 21.0675L52.7456 17.092C52.9867 16.3677 53.1503 16.2297 54.0716 16.2297H59.7801C60.8736 16.2297 60.9683 16.3332 61.2094 17.092L62.8798 22.2662C63.1267 22.8973 63.2889 23.5585 63.3619 24.2324C63.3619 24.517 62.9056 24.7325 62.1479 24.8015L61.02 24.9136C60.9416 24.9902 60.8808 25.083 60.8421 25.1855C60.8034 25.2881 60.7875 25.3979 60.7958 25.5072C60.804 25.6166 60.836 25.7228 60.8896 25.8184C60.9432 25.914 61.0171 25.9967 61.1061 26.0606H61.881L65.4714 25.9743C67.0643 25.9743 68.3902 25.9743 70.0348 26.0865H70.0864C70.1622 26.001 70.2202 25.9014 70.2571 25.7933C70.2941 25.6853 70.3092 25.5709 70.3017 25.4569C70.3058 25.3619 70.2876 25.2672 70.2488 25.1804C70.2099 25.0935 70.1514 25.017 70.0778 24.9568L69.0274 24.8447C67.4431 24.6636 66.9782 24.0685 65.9191 20.9123L60.5033 5.04486C60.004 3.57884 59.4787 2.06109 59.0568 0.6037C59.0103 0.464406 58.9173 0.345446 58.7933 0.266895C58.6694 0.188344 58.5223 0.155011 58.3766 0.17252H58.3164ZM56.293 7.18351C56.6546 6.20042 56.9732 5.45879 57.154 5.11385C57.3779 5.60539 57.6792 6.51087 57.9547 7.33011L59.9954 13.496C60.1223 13.7645 60.1701 14.0636 60.1331 14.3584C60.0642 14.4963 59.7284 14.505 59.2721 14.505H54.6226C54.3327 14.5328 54.0402 14.5035 53.7616 14.4187C53.6841 14.3411 53.8305 13.9617 53.908 13.7547L56.293 7.18351Z" fill="white"/>
</svg>
