<svg width="91" height="71" viewBox="0 0 91 71" fill="none" xmlns="http://www.w3.org/2000/svg">
<path fill-rule="evenodd" clip-rule="evenodd" d="M50.5562 25.3709L50.5562 60.8602C50.5562 66.4602 55.083 71 60.6671 71L80.889 71C86.4732 71 91 66.4602 91 60.8602L91 40.5805C91 34.9804 86.4732 30.4408 80.8891 30.4408L65.7226 30.4408L65.7226 25.3709C65.6288 20.4601 69.0581 16.1878 73.8619 15.2309C74.9827 14.9784 75.7926 13.9994 75.8336 12.8482L75.8336 2.7082C75.8712 1.92156 75.5559 1.15887 74.9741 0.629561C74.4364 0.149085 73.7167 -0.0731293 73.0025 0.0213226C60.158 1.47279 50.4748 12.4083 50.5562 25.3709ZM30.3331 71L10.1111 71C4.52721 71 0.000236908 66.4602 0.000237398 60.8602L0.0002405 25.3709C-0.055041 12.4277 9.62133 1.52138 22.4467 0.0719697C23.1608 -0.0224821 23.8804 0.199732 24.4182 0.680437C24.9596 1.1746 25.2713 1.87273 25.2777 2.6069L25.2777 12.7466C25.2829 13.9362 24.463 14.9693 23.306 15.2309C18.5021 16.1878 15.0728 20.4601 15.1668 25.3709L15.1668 30.4408L30.3331 30.4408C35.9173 30.4408 40.444 34.9804 40.444 40.5805L40.444 60.8602C40.444 66.4602 35.9173 71 30.3331 71Z" fill="white"/>
</svg>
