<svg width="91" height="71" viewBox="0 0 91 71" fill="none" xmlns="http://www.w3.org/2000/svg">
<path fill-rule="evenodd" clip-rule="evenodd" d="M40.4438 45.6291L40.4438 10.1398C40.4438 4.53975 35.917 3.13997e-06 30.3329 2.65178e-06L10.111 8.83927e-07C4.52683 3.95748e-07 -3.96878e-07 4.53975 -8.86451e-07 10.1398L-2.65935e-06 30.4195C-3.14893e-06 36.0195 4.52683 40.5592 10.1109 40.5592L25.2774 40.5592L25.2774 45.6291C25.3712 50.5399 21.9419 54.8122 17.1381 55.7691C16.0173 56.0216 15.2074 57.0006 15.1664 58.1518L15.1664 68.2918C15.1288 69.0784 15.4441 69.8411 16.0259 70.3704C16.5636 70.8509 17.2833 71.0731 17.9975 70.9787C30.842 69.5272 40.5252 58.5917 40.4438 45.6291ZM60.6669 5.30367e-06L80.8889 7.07153e-06C86.4728 7.55969e-06 90.9998 4.53976 90.9998 10.1398L90.9998 45.6291C91.055 58.5723 81.3787 69.4786 68.5533 70.928C67.8392 71.0225 67.1196 70.8003 66.5818 70.3196C66.0404 69.8254 65.7287 69.1273 65.7223 68.3931L65.7223 58.2534C65.7171 57.0638 66.537 56.0307 67.694 55.7691C72.4979 54.8122 75.9272 50.5399 75.8332 45.6291L75.8332 40.5592L60.6669 40.5592C55.0827 40.5592 50.556 36.0196 50.556 30.4195L50.556 10.1398C50.556 4.53975 55.0827 4.81549e-06 60.6669 5.30367e-06Z" fill="white"/>
</svg>
